<svg width="71" height="73" viewBox="0 0 71 73" fill="none" xmlns="http://www.w3.org/2000/svg"><g filter="url(#filter0_bd_502_2732)" fill-rule="evenodd" clip-rule="evenodd"><path d="M54.96 8.699c.44.275.77.715.825 1.266C57.053 22.36 52.701 38.17 43.171 39.49c-1.487.166-2.864 0-4.241-.44.55-1.928.991-3.911 1.322-5.84.22-1.377-.22-2.809-1.267-3.745-.055-.055-.124-.11-.193-.165a2.39 2.39 0 01-.193-.166 4.884 4.884 0 013.03-1.652c2.038-.275 4.021.826 4.903 2.7.275.605 1.046.88 1.707.605.606-.275.882-1.047.606-1.707-1.377-2.92-4.407-4.573-7.602-4.187a7.212 7.212 0 00-4.682 2.534c-2.48-1.818-6.28-4.076-11.128-5.233-.936-2.644-1.652-5.398-2.038-8.043-.055-.55.11-1.046.496-1.432 1.708-1.597 7.161-5.95 14.873-6.94 7.712-.992 14.047 1.873 16.195 2.92zM34.907 20.32c1.873-.275 3.36-1.652 3.69-3.525.166-.661-.33-1.322-1.046-1.542-.716-.11-1.377.33-1.487 1.046-.11.771-.716 1.322-1.488 1.432a1.702 1.702 0 01-1.817-.991c-.276-.606-1.047-.881-1.708-.606-.606.275-.881 1.047-.606 1.708.771 1.707 2.59 2.698 4.462 2.478zm11.237-1.432c1.873-.275 3.36-1.652 3.691-3.525.165-.661-.33-1.377-1.046-1.543-.716-.11-1.377.33-1.488 1.047-.165.771-.716 1.322-1.487 1.432-.771.11-1.487-.33-1.818-.991-.275-.606-1.047-.882-1.708-.606-.605.275-.881 1.046-.605 1.707.77 1.708 2.589 2.7 4.461 2.48zM6.098 27.097c2.093-1.101 8.483-3.911 16.195-2.864 7.712 1.047 13.11 5.453 14.873 7.05.386.386.607.882.496 1.433C35.68 45 27.306 59.102 17.722 57.78 8.08 56.513 3.84 40.648 5.271 28.31c.055-.496.33-.993.826-1.213zm4.847 7.988c-.33.606-.055 1.377.606 1.707.661.276 1.433 0 1.708-.606a1.702 1.702 0 011.817-.991c.772.11 1.377.66 1.488 1.432.11.551.55.992 1.101 1.047h.386c.716-.11 1.157-.771 1.047-1.488-.33-1.818-1.818-3.25-3.69-3.525-1.874-.276-3.636.716-4.463 2.424zm7.712 15.534c3.195.44 6.28-1.212 7.657-4.132.33-.66.055-1.432-.661-1.763-.606-.33-1.377-.055-1.708.606-.88 1.928-2.864 2.975-4.957 2.7a4.735 4.735 0 01-4.021-3.912c-.11-.716-.771-1.157-1.488-1.046-.716.11-1.157.77-1.046 1.487.55 3.195 3.03 5.619 6.224 6.06zm10.246-11.403h.386c.716-.11 1.157-.771 1.046-1.487-.33-1.818-1.818-3.25-3.69-3.526-1.873-.275-3.636.716-4.462 2.424-.33.606-.055 1.377.606 1.708.605.33 1.377.054 1.707-.606a1.702 1.702 0 011.818-.992c.771.11 1.377.661 1.487 1.432.11.551.551.992 1.102 1.047z" fill="#000"/><path d="M54.96 8.699c.44.275.77.715.825 1.266C57.053 22.36 52.701 38.17 43.171 39.49c-1.487.166-2.864 0-4.241-.44.55-1.928.991-3.911 1.322-5.84.22-1.377-.22-2.809-1.267-3.745-.055-.055-.124-.11-.193-.165a2.39 2.39 0 01-.193-.166 4.884 4.884 0 013.03-1.652c2.038-.275 4.021.826 4.903 2.7.275.605 1.046.88 1.707.605.606-.275.882-1.047.606-1.707-1.377-2.92-4.407-4.573-7.602-4.187a7.212 7.212 0 00-4.682 2.534c-2.48-1.818-6.28-4.076-11.128-5.233-.936-2.644-1.652-5.398-2.038-8.043-.055-.55.11-1.046.496-1.432 1.708-1.597 7.161-5.95 14.873-6.94 7.712-.992 14.047 1.873 16.195 2.92zM34.907 20.32c1.873-.275 3.36-1.652 3.69-3.525.166-.661-.33-1.322-1.046-1.542-.716-.11-1.377.33-1.487 1.046-.11.771-.716 1.322-1.488 1.432a1.702 1.702 0 01-1.817-.991c-.276-.606-1.047-.881-1.708-.606-.606.275-.881 1.047-.606 1.708.771 1.707 2.59 2.698 4.462 2.478zm11.237-1.432c1.873-.275 3.36-1.652 3.691-3.525.165-.661-.33-1.377-1.046-1.543-.716-.11-1.377.33-1.488 1.047-.165.771-.716 1.322-1.487 1.432-.771.11-1.487-.33-1.818-.991-.275-.606-1.047-.882-1.708-.606-.605.275-.881 1.046-.605 1.707.77 1.708 2.589 2.7 4.461 2.48zM6.098 27.097c2.093-1.101 8.483-3.911 16.195-2.864 7.712 1.047 13.11 5.453 14.873 7.05.386.386.607.882.496 1.433C35.68 45 27.306 59.102 17.722 57.78 8.08 56.513 3.84 40.648 5.271 28.31c.055-.496.33-.993.826-1.213zm4.847 7.988c-.33.606-.055 1.377.606 1.707.661.276 1.433 0 1.708-.606a1.702 1.702 0 011.817-.991c.772.11 1.377.66 1.488 1.432.11.551.55.992 1.101 1.047h.386c.716-.11 1.157-.771 1.047-1.488-.33-1.818-1.818-3.25-3.69-3.525-1.874-.276-3.636.716-4.463 2.424zm7.712 15.534c3.195.44 6.28-1.212 7.657-4.132.33-.66.055-1.432-.661-1.763-.606-.33-1.377-.055-1.708.606-.88 1.928-2.864 2.975-4.957 2.7a4.735 4.735 0 01-4.021-3.912c-.11-.716-.771-1.157-1.488-1.046-.716.11-1.157.77-1.046 1.487.55 3.195 3.03 5.619 6.224 6.06zm10.246-11.403h.386c.716-.11 1.157-.771 1.046-1.487-.33-1.818-1.818-3.25-3.69-3.526-1.873-.275-3.636.716-4.462 2.424-.33.606-.055 1.377.606 1.708.605.33 1.377.054 1.707-.606a1.702 1.702 0 011.818-.992c.771.11 1.377.661 1.487 1.432.11.551.551.992 1.102 1.047z" fill="url(#paint0_linear_502_2732)"/></g><defs><linearGradient id="paint0_linear_502_2732" x1="-8.201" y1="44.386" x2="13.701" y2="91.841" gradientUnits="userSpaceOnUse"><stop stop-color="#fff"/><stop offset="1" stop-color="#fff" stop-opacity=".2"/></linearGradient><filter id="filter0_bd_502_2732" x="-10" y="-9.427" width="81" height="82.293" filterUnits="userSpaceOnUse" color-interpolation-filters="sRGB"><feFlood flood-opacity="0" result="BackgroundImageFix"/><feGaussianBlur in="BackgroundImage" stdDeviation="7.5"/><feComposite in2="SourceAlpha" operator="in" result="effect1_backgroundBlur_502_2732"/><feColorMatrix in="SourceAlpha" values="0 0 0 0 0 0 0 0 0 0 0 0 0 0 0 0 0 0 127 0" result="hardAlpha"/><feOffset dx="5" dy="5"/><feGaussianBlur stdDeviation="5"/><feColorMatrix values="0 0 0 0 0.577356 0 0 0 0 0.359375 0 0 0 0 0.9375 0 0 0 0.5 0"/><feBlend in2="effect1_backgroundBlur_502_2732" result="effect2_dropShadow_502_2732"/><feBlend in="SourceGraphic" in2="effect2_dropShadow_502_2732" result="shape"/></filter></defs></svg>