<svg width="53" height="67" viewBox="0 0 53 67" fill="none" xmlns="http://www.w3.org/2000/svg"><g filter="url(#filter0_bd_502_2784)"><path d="M36.02 51.452l-13.282-5.368a3.269 3.269 0 00-2.426 0L7.03 51.452a1.44 1.44 0 01-1.382-.125A1.472 1.472 0 015 50.085V7.775a2.196 2.196 0 01.639-1.568 2.151 2.151 0 011.555-.634h28.661a2.15 2.15 0 011.524.652c.402.413.625.97.62 1.55v42.31c0 .485-.236.938-.632 1.212a1.44 1.44 0 01-1.347.155z" fill="#000"/><path d="M36.02 51.452l-13.282-5.368a3.269 3.269 0 00-2.426 0L7.03 51.452a1.44 1.44 0 01-1.382-.125A1.472 1.472 0 015 50.085V7.775a2.196 2.196 0 01.639-1.568 2.151 2.151 0 011.555-.634h28.661a2.15 2.15 0 011.524.652c.402.413.625.97.62 1.55v42.31c0 .485-.236.938-.632 1.212a1.44 1.44 0 01-1.347.155z" fill="url(#paint0_linear_502_2784)"/></g><defs><linearGradient id="paint0_linear_502_2784" x1="-3.542" y1="39.715" x2="19.255" y2="76.047" gradientUnits="userSpaceOnUse"><stop stop-color="#fff"/><stop offset="1" stop-color="#fff" stop-opacity=".2"/></linearGradient><filter id="filter0_bd_502_2784" x="-10" y="-9.427" width="63" height="76" filterUnits="userSpaceOnUse" color-interpolation-filters="sRGB"><feFlood flood-opacity="0" result="BackgroundImageFix"/><feGaussianBlur in="BackgroundImage" stdDeviation="7.5"/><feComposite in2="SourceAlpha" operator="in" result="effect1_backgroundBlur_502_2784"/><feColorMatrix in="SourceAlpha" values="0 0 0 0 0 0 0 0 0 0 0 0 0 0 0 0 0 0 127 0" result="hardAlpha"/><feOffset dx="5" dy="5"/><feGaussianBlur stdDeviation="5"/><feColorMatrix values="0 0 0 0 0.577356 0 0 0 0 0.359375 0 0 0 0 0.9375 0 0 0 0.5 0"/><feBlend in2="effect1_backgroundBlur_502_2784" result="effect2_dropShadow_502_2784"/><feBlend in="SourceGraphic" in2="effect2_dropShadow_502_2784" result="shape"/></filter></defs></svg>