<svg width="173" height="180" viewBox="0 0 173 180" fill="none" xmlns="http://www.w3.org/2000/svg"><path fill-rule="evenodd" clip-rule="evenodd" d="M83.835 47.31a5.115 5.115 0 015.324.022l31.609 19.4a8.818 8.818 0 012.314 2.06A8.995 8.995 0 01125 74.351v37.005a5.28 5.28 0 01-2.526 4.519l-32.558 19.741a6.574 6.574 0 01-6.832 0l-32.558-19.741A5.28 5.28 0 0148 111.356V73.545a8.26 8.26 0 011.144-4.197 8.1 8.1 0 012.793-2.824L83.835 47.31zm4.558 1.309a3.653 3.653 0 00-3.803-.016L52.693 67.817a6.609 6.609 0 00-2.28 2.304 6.738 6.738 0 00-.932 3.424v37.811c0 1.323.685 2.549 1.804 3.228l32.558 19.741a5.115 5.115 0 005.314 0l32.558-19.741a3.773 3.773 0 001.804-3.228V74.351a7.472 7.472 0 00-1.594-4.62 7.32 7.32 0 00-1.923-1.712l-31.609-19.4z" fill="#544D5D"/><g filter="url(#filter0_bdi_502_2540)"><path d="M84 58.017a5 5 0 015 0l25.744 14.863a5 5 0 012.5 4.33v29.726a5.002 5.002 0 01-2.5 4.331L89 126.13a5 5 0 01-5 0l-25.744-14.863a5.002 5.002 0 01-2.5-4.331V77.21a5 5 0 012.5-4.33L84 58.017z" fill="#E7E7E7" fill-opacity=".5"/><path d="M84 58.017a5 5 0 015 0l25.744 14.863a5 5 0 012.5 4.33v29.726a5.002 5.002 0 01-2.5 4.331L89 126.13a5 5 0 01-5 0l-25.744-14.863a5.002 5.002 0 01-2.5-4.331V77.21a5 5 0 012.5-4.33L84 58.017z" fill="url(#paint0_linear_502_2540)"/><path d="M84 58.017a5 5 0 015 0l25.744 14.863a5 5 0 012.5 4.33v29.726a5.002 5.002 0 01-2.5 4.331L89 126.13a5 5 0 01-5 0l-25.744-14.863a5.002 5.002 0 01-2.5-4.331V77.21a5 5 0 012.5-4.33L84 58.017z" fill="url(#paint1_linear_502_2540)"/></g><defs><linearGradient id="paint0_linear_502_2540" x1="86.5" y1="56.573" x2="86.5" y2="127.573" gradientUnits="userSpaceOnUse"><stop stop-color="#fff"/><stop offset="1" stop-color="#fff" stop-opacity="0"/></linearGradient><linearGradient id="paint1_linear_502_2540" x1="51" y1="92.073" x2="73.437" y2="92.073" gradientUnits="userSpaceOnUse"><stop stop-color="#8E54E9" stop-opacity=".25"/><stop offset="1" stop-color="#8E54E9" stop-opacity="0"/></linearGradient><filter id="filter0_bdi_502_2540" x=".756" y=".347" width="171.488" height="179.453" filterUnits="userSpaceOnUse" color-interpolation-filters="sRGB"><feFlood flood-opacity="0" result="BackgroundImageFix"/><feGaussianBlur in="BackgroundImage" stdDeviation="5.456"/><feComposite in2="SourceAlpha" operator="in" result="effect1_backgroundBlur_502_2540"/><feColorMatrix in="SourceAlpha" values="0 0 0 0 0 0 0 0 0 0 0 0 0 0 0 0 0 0 127 0" result="hardAlpha"/><feOffset dy="-2"/><feGaussianBlur stdDeviation="27.5"/><feColorMatrix values="0 0 0 0 1 0 0 0 0 1 0 0 0 0 1 0 0 0 0.4 0"/><feBlend in2="effect1_backgroundBlur_502_2540" result="effect2_dropShadow_502_2540"/><feBlend in="SourceGraphic" in2="effect2_dropShadow_502_2540" result="shape"/><feColorMatrix in="SourceAlpha" values="0 0 0 0 0 0 0 0 0 0 0 0 0 0 0 0 0 0 127 0" result="hardAlpha"/><feOffset dy="16.367"/><feGaussianBlur stdDeviation="5.456"/><feComposite in2="hardAlpha" operator="arithmetic" k2="-1" k3="1"/><feColorMatrix values="0 0 0 0 0 0 0 0 0 0 0 0 0 0 0 0 0 0 0.15 0"/><feBlend in2="shape" result="effect3_innerShadow_502_2540"/></filter></defs></svg>