<svg width="566" height="367" viewBox="0 0 566 367" fill="none" xmlns="http://www.w3.org/2000/svg"><path d="M278.139 119.382a11 11 0 0111 0l45.984 26.548a11.002 11.002 0 015.5 9.527v53.097a11 11 0 01-5.5 9.526l-45.984 26.549a11 11 0 01-11 0l-45.984-26.549a11 11 0 01-5.5-9.526v-53.097c0-3.93 2.097-7.562 5.5-9.527l45.984-26.548z" fill="#fff"/><path d="M278.139 119.382a11 11 0 0111 0l45.984 26.548a11.002 11.002 0 015.5 9.527v53.097a11 11 0 01-5.5 9.526l-45.984 26.549a11 11 0 01-11 0l-45.984-26.549a11 11 0 01-5.5-9.526v-53.097c0-3.93 2.097-7.562 5.5-9.527l45.984-26.548z" fill="url(#paint0_linear_502_2480)"/><path fill-rule="evenodd" clip-rule="evenodd" d="M122.975 236.221l-60.05-34.497.637-1.108 60.05 34.497-.637 1.108zm128.401 74.102l-81.131-47.274.643-1.103 81.131 47.273-.643 1.104zm187.18-72.655l64.521-37.052.636 1.108-64.521 37.052-.636-1.108zm-49.189 29.853l-73.465 42.802-.643-1.104 73.465-42.802.643 1.104zm103.484-102.213l-67.715-39.607.645-1.103 67.715 39.608-.645 1.102zM258.405 58.626l-65.16 37.69-.64-1.105 65.161-37.691.639 1.106z" fill="#fff" fill-opacity=".25"/><path d="M34.551 155.979a5 5 0 015 0l22.11 12.765a4.999 4.999 0 012.5 4.33v25.529a5 5 0 01-2.5 4.33l-22.11 12.764a4.996 4.996 0 01-5 0l-22.108-12.764a5 5 0 01-2.5-4.33v-25.529c0-1.787.953-3.437 2.5-4.33l22.108-12.765z" fill="#fff"/><path d="M34.551 155.979a5 5 0 015 0l22.11 12.765a4.999 4.999 0 012.5 4.33v25.529a5 5 0 01-2.5 4.33l-22.11 12.764a4.996 4.996 0 01-5 0l-22.108-12.764a5 5 0 01-2.5-4.33v-25.529c0-1.787.953-3.437 2.5-4.33l22.108-12.765z" fill="url(#paint1_linear_502_2480)"/><path d="M281.139 12.882a5 5 0 015 0l22.109 12.765a5 5 0 012.5 4.33v25.529a5 5 0 01-2.5 4.33L286.139 72.6a5 5 0 01-5 0L259.03 59.836a5 5 0 01-2.5-4.33v-25.53a5 5 0 012.5-4.33l22.109-12.764z" fill="#fff"/><path d="M281.139 12.882a5 5 0 015 0l22.109 12.765a5 5 0 012.5 4.33v25.529a5 5 0 01-2.5 4.33L286.139 72.6a5 5 0 01-5 0L259.03 59.836a5 5 0 01-2.5-4.33v-25.53a5 5 0 012.5-4.33l22.109-12.764z" fill="url(#paint2_linear_502_2480)"/><path opacity=".25" fill-rule="evenodd" clip-rule="evenodd" d="M285.932 1.217a4.472 4.472 0 00-4.591-.019l-30.995 18.367a7.67 7.67 0 00-3.759 6.597v36.123a4.47 4.47 0 002.181 3.84l31.926 19.043a5.748 5.748 0 005.89 0l31.926-19.043a4.473 4.473 0 002.181-3.84v-35.38a8.373 8.373 0 00-4.034-7.137L285.932 1.217zm-3.94 1.08a3.194 3.194 0 013.279.014l30.725 18.55a7.082 7.082 0 012.465 2.518L290.599 39.05a13.3 13.3 0 00-.978.607c-1.485.556-3.554.847-5.663.847-2.1 0-4.16-.289-5.643-.84a13.36 13.36 0 00-1.025-.649l-28.446-16.254a6.404 6.404 0 012.153-2.098l30.995-18.367zm8.229 38.5l.044-.018-.005-.01c.312-.216.634-.418.965-.604L319 24.542c.27.755.413 1.555.413 2.362v35.38a3.195 3.195 0 01-1.558 2.744L285.93 84.07a4.473 4.473 0 01-1.652.586V51.59c.023-2.72.959-5.354 2.659-7.479l.761-.95a12.134 12.134 0 012.523-2.366zm-2.786.723a22.311 22.311 0 01-3.477.263c-1.191 0-2.394-.088-3.514-.27.273.293.533.598.779.915l.229.294a13.411 13.411 0 012.304 4.532 13.4 13.4 0 012.184-3.94l.76-.95c.234-.292.479-.574.735-.844zM283 51.584v-.627c0-2.7-.899-5.321-2.557-7.452l-.228-.294a12.149 12.149 0 00-2.506-2.41l-.057-.023.006-.014a12.418 12.418 0 00-1.002-.64l-28.381-16.217a6.402 6.402 0 00-.41 2.254v36.123c0 1.125.591 2.166 1.557 2.743l31.926 19.043a4.46 4.46 0 001.652.586V51.585z" fill="#fff"/><path fill-rule="evenodd" clip-rule="evenodd" d="M287.711 108.406a7.941 7.941 0 00-8.153-.034l-55.043 32.618a13.62 13.62 0 00-6.675 11.715v64.148a7.943 7.943 0 003.873 6.821l56.695 33.818a10.21 10.21 0 0010.461 0l56.696-33.818a7.943 7.943 0 003.873-6.821v-62.83a14.86 14.86 0 00-7.164-12.673l-54.563-32.944zm-6.996 1.918a5.671 5.671 0 015.823.024l54.564 32.944a12.604 12.604 0 014.377 4.47l-49.48 27.832c-.595.335-1.174.695-1.736 1.078-2.637.986-6.311 1.504-10.057 1.504-3.729 0-7.388-.513-10.022-1.491a23.491 23.491 0 00-1.821-1.153l-50.514-28.866a11.348 11.348 0 013.823-3.724l55.043-32.618zm14.614 68.369l.076-.03-.007-.018a21.46 21.46 0 011.713-1.073l49.324-27.745c.481 1.342.734 2.763.734 4.196v62.83a5.673 5.673 0 01-2.766 4.872l-56.696 33.818a7.926 7.926 0 01-2.934 1.04V197.95a21.553 21.553 0 014.724-13.368l1.35-1.688a21.549 21.549 0 014.482-4.201zm-4.948 1.284c-1.97.315-4.083.468-6.175.468a39.54 39.54 0 01-6.241-.478 24.12 24.12 0 011.384 1.623l.406.523a23.816 23.816 0 014.092 8.048 23.822 23.822 0 013.878-6.996l1.351-1.689c.414-.518.85-1.018 1.305-1.499zm-7.876 17.968v-1.206c0-4.793-1.598-9.45-4.541-13.233l-.406-.523a21.556 21.556 0 00-4.451-4.281l-.041-.016-.059-.023.01-.025a21.527 21.527 0 00-1.779-1.136l-50.4-28.8a11.359 11.359 0 00-.729 4.003v64.148a5.673 5.673 0 002.766 4.872l56.696 33.818a7.928 7.928 0 002.933 1.04v-58.536l.001-.102z" fill="#fff" fill-opacity=".24"/><path fill-rule="evenodd" clip-rule="evenodd" d="M39.345 143.675a4.474 4.474 0 00-4.591-.019L3.759 162.023A7.674 7.674 0 000 168.621v36.122a4.47 4.47 0 002.181 3.84l31.926 19.044a5.75 5.75 0 005.89 0l31.926-19.044a4.47 4.47 0 002.18-3.84v-35.38a8.368 8.368 0 00-4.033-7.137l-30.725-18.551zm-3.94 1.08a3.196 3.196 0 013.28.014l30.724 18.551a7.093 7.093 0 012.465 2.517L44.013 181.51a13.52 13.52 0 00-.977.606c-1.485.556-3.554.848-5.663.848-2.1 0-4.16-.29-5.644-.84a13.479 13.479 0 00-1.025-.65L2.258 165.22a6.385 6.385 0 012.152-2.097l30.995-18.368zm8.23 38.499a.7.7 0 00.043-.017l-.004-.01a12.1 12.1 0 01.965-.604L72.413 167c.27.755.413 1.556.413 2.363v35.38a3.193 3.193 0 01-1.558 2.743l-31.925 19.043a4.46 4.46 0 01-1.652.586v-32.962c0-2.756.938-5.43 2.66-7.582l.76-.951a12.132 12.132 0 012.524-2.366zm-2.786.724c-1.11.177-2.3.263-3.477.263-1.192 0-2.395-.088-3.515-.269.273.292.533.597.78.914l.228.294a13.407 13.407 0 012.305 4.533 13.396 13.396 0 012.183-3.94l.76-.951c.234-.292.48-.574.736-.844zm-4.436 9.438v33.699a4.463 4.463 0 01-1.652-.586L2.835 207.486a3.193 3.193 0 01-1.557-2.743v-36.122c0-.774.14-1.537.41-2.255l28.38 16.218c.346.197.68.41 1.003.639l-.006.014.057.023a12.13 12.13 0 012.506 2.41l.228.294a12.14 12.14 0 012.557 7.452z" fill="#fff" fill-opacity=".25"/><path d="M526.448 155.979a5 5 0 015 0l22.109 12.765a4.999 4.999 0 012.5 4.33v25.529a5 5 0 01-2.5 4.33l-22.109 12.764a4.996 4.996 0 01-5 0l-22.109-12.764a5 5 0 01-2.5-4.33v-25.529c0-1.787.953-3.437 2.5-4.33l22.109-12.765z" fill="url(#paint3_linear_502_2480)"/><path opacity=".25" fill-rule="evenodd" clip-rule="evenodd" d="M531.241 143.675a4.474 4.474 0 00-4.591-.019l-30.995 18.367a7.675 7.675 0 00-3.759 6.598v36.122c0 1.575.828 3.034 2.181 3.84l31.926 19.044a5.75 5.75 0 005.89 0l31.926-19.044a4.471 4.471 0 002.181-3.84v-35.38a8.373 8.373 0 00-4.034-7.137l-30.725-18.551zm-3.94 1.08a3.196 3.196 0 013.279.014l30.726 18.551a7.096 7.096 0 012.464 2.517l-27.862 15.673c-.335.188-.662.391-.978.607-1.485.555-3.554.847-5.662.847-2.1 0-4.16-.29-5.644-.84a13.43 13.43 0 00-1.025-.65l-28.445-16.254a6.385 6.385 0 012.152-2.097l30.995-18.368zm8.229 38.5l.044-.018-.004-.01c.311-.216.633-.417.964-.604L564.309 167a7 7 0 01.413 2.363v35.38a3.194 3.194 0 01-1.558 2.743l-31.925 19.043a4.468 4.468 0 01-1.652.586v-33.066a12.136 12.136 0 012.659-7.478l.761-.951a12.096 12.096 0 012.523-2.365zm-2.786.723a22.333 22.333 0 01-3.476.263c-1.192 0-2.395-.088-3.515-.269.273.292.533.597.779.914l.229.294a13.41 13.41 0 012.304 4.532 13.393 13.393 0 012.184-3.939l.76-.951c.234-.292.479-.574.735-.844zm-4.435 10.066v-.628a12.14 12.14 0 00-2.556-7.452l-.229-.294a12.156 12.156 0 00-2.506-2.41l-.057-.023.006-.014a12.138 12.138 0 00-1.002-.639l-28.381-16.218a6.404 6.404 0 00-.41 2.255v36.122c0 1.125.591 2.167 1.557 2.743l31.926 19.043a4.462 4.462 0 001.652.586v-33.071z" fill="#fff"/><path fill-rule="evenodd" clip-rule="evenodd" d="M160.346 151.981v-37.052h1.277v37.052h-1.277z" fill="#fff" fill-opacity=".25"/><path fill-rule="evenodd" clip-rule="evenodd" d="M129.356 96.953l.651-1.1 30.977 18.333 30.977-18.333.651 1.1-31.628 18.718-31.628-18.719z" fill="#fff" fill-opacity=".25"/><path fill-rule="evenodd" clip-rule="evenodd" d="M158.685 77.22a4.472 4.472 0 014.594.02l27.273 16.48a7.561 7.561 0 013.652 6.472v31.44a4.471 4.471 0 01-2.18 3.839l-28.092 16.772a5.75 5.75 0 01-5.895 0l-28.092-16.772a4.47 4.47 0 01-2.179-3.839V99.509a6.933 6.933 0 013.397-5.965l27.522-16.324zm3.933 1.113a3.193 3.193 0 00-3.281-.014l-27.522 16.324a5.658 5.658 0 00-2.772 4.866v32.123c0 1.124.592 2.166 1.557 2.742l28.092 16.772a4.472 4.472 0 004.585 0l28.092-16.772a3.192 3.192 0 001.557-2.742v-31.439a6.283 6.283 0 00-3.035-5.379l-27.273-16.481zm-8.661 212.912v-37.052h1.278v37.052h-1.278z" fill="#fff" fill-opacity=".25"/><path fill-rule="evenodd" clip-rule="evenodd" d="M122.968 236.217l.651-1.1 30.977 18.334 30.977-18.334.65 1.1-31.627 18.718-31.628-18.718z" fill="#fff" fill-opacity=".25"/><path fill-rule="evenodd" clip-rule="evenodd" d="M152.296 216.484a4.473 4.473 0 014.594.019l27.273 16.482a7.563 7.563 0 013.652 6.472v31.439a4.471 4.471 0 01-2.18 3.839l-28.092 16.772a5.748 5.748 0 01-5.894 0l-28.093-16.772a4.472 4.472 0 01-2.179-3.839v-32.123a6.933 6.933 0 013.397-5.965l27.522-16.324zm3.934 1.113a3.197 3.197 0 00-3.282-.014l-27.522 16.324a5.658 5.658 0 00-2.771 4.866v32.123c0 1.124.591 2.166 1.556 2.742l28.093 16.772a4.47 4.47 0 004.584 0l28.092-16.772a3.192 3.192 0 001.557-2.742v-31.439a6.287 6.287 0 00-3.034-5.379l-27.273-16.481zM406.932 293.8v-37.052h1.278V293.8h-1.278z" fill="#fff" fill-opacity=".25"/><path fill-rule="evenodd" clip-rule="evenodd" d="M375.943 238.772l.651-1.1 30.977 18.334 30.977-18.334.651 1.1-31.628 18.719-31.628-18.719z" fill="#fff" fill-opacity=".25"/><path fill-rule="evenodd" clip-rule="evenodd" d="M405.272 219.04a4.47 4.47 0 014.594.019l27.273 16.481a7.56 7.56 0 013.651 6.473v31.438a4.474 4.474 0 01-2.179 3.84l-28.093 16.771a5.748 5.748 0 01-5.894 0l-28.092-16.771a4.473 4.473 0 01-2.18-3.84v-32.123a6.936 6.936 0 013.397-5.965l27.523-16.323zm3.933 1.112a3.194 3.194 0 00-3.282-.013l-27.522 16.323a5.658 5.658 0 00-2.771 4.866v32.123c0 1.125.591 2.166 1.557 2.743l28.092 16.771a4.47 4.47 0 004.584 0l28.093-16.771a3.195 3.195 0 001.556-2.743v-31.438a6.29 6.29 0 00-3.034-5.38l-27.273-16.481zm-2.273-68.171v-37.052h1.278v37.052h-1.278z" fill="#fff" fill-opacity=".25"/><path fill-rule="evenodd" clip-rule="evenodd" d="M375.943 96.953l.651-1.1 30.977 18.333 30.977-18.333.651 1.1-31.628 18.718-31.628-18.719z" fill="#fff" fill-opacity=".25"/><path fill-rule="evenodd" clip-rule="evenodd" d="M405.272 77.22a4.472 4.472 0 014.594.02l27.273 16.48a7.566 7.566 0 013.651 6.472v31.44a4.472 4.472 0 01-2.179 3.839l-28.093 16.772a5.748 5.748 0 01-5.894 0l-28.092-16.772a4.471 4.471 0 01-2.18-3.839V99.509a6.933 6.933 0 013.397-5.965l27.523-16.324zm3.933 1.113a3.195 3.195 0 00-3.282-.014l-27.522 16.324a5.664 5.664 0 00-2.771 4.866v32.123c0 1.124.591 2.166 1.557 2.742l28.092 16.772a4.47 4.47 0 004.584 0l28.093-16.772a3.194 3.194 0 001.556-2.742v-31.439a6.288 6.288 0 00-3.034-5.379l-27.273-16.481zM283 365.349v-37.052h1.278v37.052H283z" fill="#fff" fill-opacity=".25"/><path fill-rule="evenodd" clip-rule="evenodd" d="M252.011 310.32l.651-1.099 30.977 18.333 30.977-18.333.651 1.099-31.628 18.719-31.628-18.719z" fill="#fff" fill-opacity=".25"/><path fill-rule="evenodd" clip-rule="evenodd" d="M281.339 290.588a4.473 4.473 0 014.594.019l27.273 16.481a7.567 7.567 0 013.652 6.473V345a4.471 4.471 0 01-2.18 3.839l-28.092 16.772a5.748 5.748 0 01-5.894 0l-28.093-16.772A4.472 4.472 0 01250.42 345v-32.123a6.933 6.933 0 013.397-5.965l27.522-16.324zm3.933 1.113a3.195 3.195 0 00-3.281-.014l-27.522 16.324a5.658 5.658 0 00-2.771 4.866V345c0 1.124.591 2.166 1.556 2.742l28.093 16.772a4.47 4.47 0 004.584 0l28.092-16.772A3.192 3.192 0 00315.58 345v-31.439a6.287 6.287 0 00-3.034-5.379l-27.274-16.481zM144.696 124.425l-71.549 41.523-.641-1.105 71.548-41.523.642 1.105zm230.612-26.831l-65.799-38.33.643-1.104 65.799 38.33-.643 1.104z" fill="#fff" fill-opacity=".25"/><defs><linearGradient id="paint0_linear_502_2480" x1="224.554" y1="242.433" x2="378.818" y2="207.521" gradientUnits="userSpaceOnUse"><stop stop-color="#4776E6"/><stop offset=".672" stop-color="#8E54E9"/></linearGradient><linearGradient id="paint1_linear_502_2480" x1="8.943" y1="214.585" x2="82.331" y2="197.977" gradientUnits="userSpaceOnUse"><stop stop-color="#4776E6"/><stop offset=".672" stop-color="#8E54E9"/></linearGradient><linearGradient id="paint2_linear_502_2480" x1="255.53" y1="71.488" x2="328.918" y2="54.88" gradientUnits="userSpaceOnUse"><stop stop-color="#4776E6"/><stop offset=".672" stop-color="#8E54E9"/></linearGradient><linearGradient id="paint3_linear_502_2480" x1="500.84" y1="214.585" x2="574.228" y2="197.977" gradientUnits="userSpaceOnUse"><stop stop-color="#4776E6"/><stop offset=".672" stop-color="#8E54E9"/></linearGradient></defs></svg>