<svg width="74" height="73" viewBox="0 0 74 73" fill="none" xmlns="http://www.w3.org/2000/svg"><g filter="url(#filter0_bd_1139_54)"><path d="M26.324 10.693a5.63 5.63 0 011.659-3.988 5.677 5.677 0 014.005-1.652c1.502 0 2.942.594 4.005 1.652a5.63 5.63 0 011.658 3.988 5.63 5.63 0 01-1.658 3.988 5.677 5.677 0 01-4.005 1.652 5.677 5.677 0 01-4.005-1.652 5.63 5.63 0 01-1.659-3.988zm15.103 16.92v-3.76a5.63 5.63 0 00-1.658-3.988 5.677 5.677 0 00-4.005-1.652h-7.552a5.677 5.677 0 00-4.005 1.652 5.63 5.63 0 00-1.659 3.988v3.76a1.882 1.882 0 001.888 1.88H39.54c.5 0 .981-.198 1.335-.55.354-.353.553-.831.553-1.33zm-26.43 16.92a5.677 5.677 0 004.005-1.652 5.63 5.63 0 001.658-3.988 5.63 5.63 0 00-1.658-3.988 5.677 5.677 0 00-4.005-1.652 5.677 5.677 0 00-4.005 1.652 5.63 5.63 0 00-1.66 3.988 5.63 5.63 0 001.66 3.988 5.677 5.677 0 004.005 1.652zm3.775 1.88h-7.551a5.677 5.677 0 00-4.005 1.652 5.63 5.63 0 00-1.659 3.988v3.76a1.88 1.88 0 001.888 1.88h15.103c.5 0 .981-.198 1.335-.55.354-.353.553-.831.553-1.33v-3.76c0-1.496-.597-2.93-1.659-3.988a5.677 5.677 0 00-4.005-1.652zm30.207-1.88a5.677 5.677 0 004.005-1.652 5.63 5.63 0 001.658-3.988 5.63 5.63 0 00-1.658-3.988 5.677 5.677 0 00-4.005-1.652 5.677 5.677 0 00-4.005 1.652 5.63 5.63 0 00-1.659 3.988 5.63 5.63 0 001.659 3.988 5.677 5.677 0 004.005 1.652zm3.776 1.88h-7.552a5.677 5.677 0 00-4.005 1.652 5.629 5.629 0 00-1.659 3.988v3.76a1.884 1.884 0 001.888 1.88H56.53c.5 0 .981-.198 1.335-.55.354-.353.553-.831.553-1.33v-3.76c0-1.496-.596-2.93-1.658-3.988a5.677 5.677 0 00-4.005-1.652zm-18.88-6.655v-4.625c0-.672-.36-1.293-.943-1.628a1.895 1.895 0 00-1.888 0 1.879 1.879 0 00-.944 1.628v4.625l-4.814 3.215a1.875 1.875 0 00.29 3.12 1.895 1.895 0 001.786 0l4.626-3.064 4.625 3.064c.304.213.667.324 1.038.32a1.892 1.892 0 001.41-.646 1.877 1.877 0 00-.371-2.794l-4.814-3.215z" fill="url(#paint0_linear_1139_54)"/></g><defs><linearGradient id="paint0_linear_1139_54" x1="-8.126" y1="44.123" x2="13.502" y2="92.374" gradientUnits="userSpaceOnUse"><stop stop-color="#fff"/><stop offset="1" stop-color="#fff" stop-opacity=".2"/></linearGradient><filter id="filter0_bd_1139_54" x="-9.443" y="-9.947" width="82.861" height="82.64" filterUnits="userSpaceOnUse" color-interpolation-filters="sRGB"><feFlood flood-opacity="0" result="BackgroundImageFix"/><feGaussianBlur in="BackgroundImage" stdDeviation="7.5"/><feComposite in2="SourceAlpha" operator="in" result="effect1_backgroundBlur_1139_54"/><feColorMatrix in="SourceAlpha" values="0 0 0 0 0 0 0 0 0 0 0 0 0 0 0 0 0 0 127 0" result="hardAlpha"/><feOffset dx="5" dy="5"/><feGaussianBlur stdDeviation="5"/><feColorMatrix values="0 0 0 0 0.577356 0 0 0 0 0.359375 0 0 0 0 0.9375 0 0 0 0.5 0"/><feBlend in2="effect1_backgroundBlur_1139_54" result="effect2_dropShadow_1139_54"/><feBlend in="SourceGraphic" in2="effect2_dropShadow_1139_54" result="shape"/></filter></defs></svg>