<svg width="78" height="48" viewBox="0 0 78 48" fill="none" xmlns="http://www.w3.org/2000/svg"><g filter="url(#filter0_bd_502_2599)"><path fill-rule="evenodd" clip-rule="evenodd" d="M52.617 7.257c-.89-1.209-2.35-1.908-3.874-1.908h-29.34c-1.524 0-2.984.7-3.873 1.908l-.445.572h38.04l-.508-.572zm-37.722 2.67h38.357c2.286 0 4.191 2.036 4.128 4.643v13.355c0 2.544-1.905 4.643-4.191 4.643H41.377c-1.715 0-3.239-1.018-4.064-2.608l-1.525-2.989c-.762-1.526-2.794-1.59-3.62-.063l-1.587 2.861c-.953 1.718-2.668 2.799-4.51 2.799H14.896c-2.287 0-4.192-2.099-4.192-4.643V14.57c0-2.543 1.842-4.642 4.192-4.642zm44.58 6.269a1.334 1.334 0 012.668 0v6.39a1.334 1.334 0 01-2.668 0v-6.39zm-52.48 7.631a1.334 1.334 0 01-1.055-1.304V16.22a1.334 1.334 0 012.668 0v6.303c0 .85-.783 1.482-1.614 1.304z" fill="url(#paint0_linear_502_2599)"/></g><defs><linearGradient id="paint0_linear_502_2599" x1="-8.607" y1="25.551" x2="-2.372" y2="54.154" gradientUnits="userSpaceOnUse"><stop stop-color="#fff"/><stop offset="1" stop-color="#fff" stop-opacity=".2"/></linearGradient><filter id="filter0_bd_502_2599" x="-9.06" y="-9.651" width="86.202" height="57.219" filterUnits="userSpaceOnUse" color-interpolation-filters="sRGB"><feFlood flood-opacity="0" result="BackgroundImageFix"/><feGaussianBlur in="BackgroundImage" stdDeviation="7.5"/><feComposite in2="SourceAlpha" operator="in" result="effect1_backgroundBlur_502_2599"/><feColorMatrix in="SourceAlpha" values="0 0 0 0 0 0 0 0 0 0 0 0 0 0 0 0 0 0 127 0" result="hardAlpha"/><feOffset dx="5" dy="5"/><feGaussianBlur stdDeviation="5"/><feColorMatrix values="0 0 0 0 0.577356 0 0 0 0 0.359375 0 0 0 0 0.9375 0 0 0 0.5 0"/><feBlend in2="effect1_backgroundBlur_502_2599" result="effect2_dropShadow_502_2599"/><feBlend in="SourceGraphic" in2="effect2_dropShadow_502_2599" result="shape"/></filter></defs></svg>