<svg width="328" height="351" viewBox="0 0 328 351" fill="none" xmlns="http://www.w3.org/2000/svg"><path d="M250.273.497l-45.428 39.208h-22.714L148.534.497 118.249 18.92 72.821 6.638l4.732 68.022H47.268l-8.991 43.931 20.82 48.655-42.115 17.951L.42 309.431h89.436l11.83 30.233h65.303l30.285-21.257 69.561 31.649 22.714-22.674v-59.047l22.714-31.649-22.714-51.489v-51.49l37.857-15.116V39.705L250.273.497z" stroke="#AD5CFF" stroke-width=".27"/><path d="M181.004 160.769l-8.215-4.196h-10.837l-7.56 7.937-1.965 9.907-4.486 1.921-1.764 13.295h9.526l11.441.96 7.409 3.387 2.419-2.426v-20.726l4.032-1.617v-8.442z" stroke="#AD5CFF" stroke-width=".27"/><path d="M244.629 12.503l-42.25 36.03h-21.8l-31.304-35.886-28.246 17.31-42.01-10.955 4.293 63.17-28.3.148-8.367 41.063 19.151 45.424-38.51 16.569-14.921 114.679 82.996.037 11.36 27.943 60.85.261 28.048-19.716 64.304 29.122 20.966-21.173v-54.748l20.967-30.323-20.812-47.59.156-47.591 34.944-14.278V48.856l-71.515-36.353z" stroke="#AD5CFF" stroke-width=".27"/><path d="M238.985 24.51l-39.071 32.852h-20.887l-29.01-32.565-26.208 16.199-38.59-9.63 3.853 58.319-26.316.296-7.743 38.195 17.482 42.192-34.904 15.188-13.28 105.122 76.556.074 10.89 25.655 56.396.521 25.812-18.173 59.045 26.593 19.22-19.672v-50.449l19.219-28.996-18.909-43.692.31-43.692 32.033-13.44v-67.4L238.985 24.51z" stroke="#AD5CFF" stroke-width=".27"/><path d="M233.34 36.515L197.448 66.19h-19.973l-26.717-29.243-24.169 15.087-35.17-8.305 3.412 53.468-24.331.444-7.12 35.327 15.813 38.96-31.297 13.808-11.641 95.566 70.117.11 10.42 23.367 51.942.781 23.576-16.631 53.788 24.065 17.472-18.17v-46.15l17.472-27.67-17.007-39.794.465-39.794 29.121-12.601V67.158L233.34 36.515z" stroke="#AD5CFF" stroke-width=".27"/><path d="M227.695 48.52l-32.714 26.5h-19.059l-24.423-25.923-22.13 13.975-31.752-6.978 2.973 48.616-22.347.591-6.495 32.459 14.143 35.73-27.692 12.427-10 86.009 63.677.148 9.95 21.077 47.49 1.042 21.338-15.089 48.53 21.537 15.725-16.669V242.12l15.725-26.344-15.104-35.895.62-35.895 26.208-11.764V76.31l-54.663-27.79z" stroke="#AD5CFF" stroke-width=".27"/><path d="M222.051 60.527l-29.535 23.32H174.37l-22.129-22.6-20.091 12.862-28.333-5.652 2.534 43.765-20.363.739-5.872 29.591L92.59 175.05l-24.085 11.046-8.36 76.452 57.237.185 9.48 18.789 43.036 1.303L189 269.277l43.273 19.01 13.977-15.169v-37.551l13.978-25.018-13.202-31.996.775-31.997 23.296-10.926V85.461l-49.046-24.934z" stroke="#AD5CFF" stroke-width=".27"/><path d="M216.407 72.532L190.05 92.676h-17.232l-19.835-19.28-18.052 11.751-24.915-4.327 2.094 38.914-18.377.886-5.249 26.724L99.29 176.61l-20.48 9.666-6.72 66.895 50.798.222 9.011 16.501 38.582 1.563 16.866-12.006 38.014 16.482 12.231-13.668v-33.252l12.23-23.691-11.3-28.099.931-28.098 20.384-10.087V94.612l-43.429-22.08z" stroke="#AD5CFF" stroke-width=".27"/><path d="M210.763 84.538l-23.178 16.966h-16.318l-17.542-15.959-16.014 10.64-21.496-3.001 1.655 34.062-16.393 1.034-4.624 23.856 9.134 26.035-16.873 8.285-5.08 57.339 44.359.258 8.54 14.212 34.129 1.824 14.629-10.464 32.757 13.954 10.483-12.166v-28.954l10.484-22.365-9.398-24.199 1.085-24.2 17.473-9.249v-38.683l-37.812-19.225z" stroke="#AD5CFF" stroke-width=".27"/><path d="M205.118 96.544l-20 13.789h-15.405l-15.248-12.638-13.974 9.528-18.077-1.676 1.215 29.211-14.409 1.182-4.001 20.987 7.466 22.804-13.267 6.904-3.44 47.783 37.919.296 8.071 11.923 29.675 2.084 12.393-8.922 27.498 11.426 8.737-10.665v-24.655l8.736-21.038-7.496-20.301 1.241-20.301 14.56-8.412v-32.938l-32.194-16.371z" stroke="#AD5CFF" stroke-width=".27"/><path d="M199.475 108.55l-16.822 10.611h-14.491l-12.954-9.316-11.936 8.416-14.658-.35.776 24.36-12.424 1.329-3.377 18.12 5.796 19.572-9.662 5.523-1.798 38.227 31.479.332 7.6 9.635 25.222 2.344 10.156-7.38 22.241 8.898 6.989-9.164v-20.355l6.989-19.712-5.593-16.403 1.396-16.403 11.648-7.573v-27.195l-26.577-13.516z" stroke="#AD5CFF" stroke-width=".27"/><path d="M193.829 120.556l-13.643 7.434h-13.577l-10.661-5.996-9.897 7.304-11.239.977.336 19.508-10.439 1.477-2.754 15.252 4.127 16.341-6.055 4.142-.159 28.67 25.04.369 7.13 7.346 20.769 2.606 7.919-5.839 16.983 6.37 5.242-7.662v-16.057l5.242-18.386-3.691-12.504 1.551-12.504 8.736-6.735v-21.452l-20.96-10.661z" stroke="#AD5CFF" stroke-width=".27"/><path d="M188.185 132.562l-10.464 4.256h-12.664l-8.367-2.674-7.858 6.192-7.82 2.302-.104 14.657-8.455 1.625-2.129 12.383 2.457 13.11-2.45 2.762 1.482 19.113 18.6.406 6.661 5.058 16.315 2.866 5.683-4.297 11.725 3.842 3.495-6.161v-11.758l3.494-17.059-1.788-8.606 1.706-8.606 5.824-5.897v-15.708l-15.343-7.806z" stroke="#AD5CFF" stroke-width=".27"/><path d="M182.541 144.568l-7.286 1.079h-11.75l-6.073.647-5.819 5.08-4.402 3.628-.543 9.805-6.47 1.773-1.506 9.516.787 9.878 1.157 1.381 3.123 9.557 12.16.443 6.19 2.769 11.863 3.126 3.446-2.755 6.467 1.315 1.747-4.661v-7.458l1.748-15.733.113-4.707 1.861-4.708 2.912-5.059v-9.964l-9.725-4.952z" stroke="#AD5CFF" stroke-width=".27"/></svg>