<svg width="691" height="731" viewBox="0 0 691 731" fill="none" xmlns="http://www.w3.org/2000/svg"><path d="M207.807 13.625l81.315 83.329 43.909 3.768 71.453-70.22 55.49 40.636 89.856-16.207-20.431 130.712 58.545 5.024 10.094 86.416-48.321 90.603 78.438 41.687 11.41 242.911-172.893-14.835-27.884 56.481-126.24-10.832-55.019-46.116-139.722 49.644-40.149-47.6 9.795-114.147-38.66-64.95 52.45-95.768 8.541-99.536-70.675-35.501 13.086-152.5 155.612-62.999z" stroke="#AD5CFF" stroke-width=".523"/><path d="M315.129 334.944l16.578-6.748 20.948 1.797 13.298 16.596 2.156 19.479 8.353 4.458 1.205 25.992-18.415-1.58-22.276-.041-14.884 5.319-4.274-5.092 1.048-12.215 2.389-27.85-7.526-3.796 1.4-16.319z" stroke="#AD5CFF" stroke-width=".523"/><path d="M216.727 37.77l75.697 76.659 42.143 3.617 66.468-64.18 51.733 38.149 83.027-14.212-18.777 121.407 54.685 4.98 9.364 80.769-44.558 84.633 71.696 38.419 9.824 224.165-160.45-13.695-26.596 52.134-117.674-9.59-50.952-42.764-129.138 45.629-37.02-44.408 9.081-105.836-35.501-62.096 48.126-88.548 7.594-92.025-65.185-33.398L72.447 96.183l144.28-58.413z" stroke="#AD5CFF" stroke-width=".523"/><path d="M225.647 61.916l70.081 69.99 40.376 3.464 61.483-58.14 47.976 35.662 76.198-12.216-17.122 112.101 50.824 4.937 8.633 75.121-40.794 78.663 64.954 35.152 8.238 205.419-148.008-12.556-25.308 47.788-109.107-8.347-46.884-39.413-118.555 41.614-33.891-41.216 8.368-97.525-32.344-59.243 43.802-81.326 6.647-84.515-59.694-31.295L92.7 115.742l132.947-53.826z" stroke="#AD5CFF" stroke-width=".523"/><path d="M234.567 86.061l64.463 63.321 38.61 3.313 56.498-52.101 44.219 33.174 69.369-10.219-15.467 102.795 46.962 4.893 7.904 69.473-37.031 72.694 58.212 31.884 6.652 186.673-135.565-11.416-24.02 43.442-100.542-7.105-42.816-36.062-107.971 37.6-30.763-38.025 7.655-89.214-29.186-56.389 39.478-74.105 5.701-77.004-54.204-29.192 10.228-119.19 121.614-49.24z" stroke="#AD5CFF" stroke-width=".523"/><path d="M243.487 110.206l58.845 56.651 36.844 3.162 51.514-46.061 40.462 30.687 62.539-8.224-13.813 93.49 43.102 4.849 7.174 63.826-33.268 66.724 51.47 28.617 5.066 167.926L430.3 561.576l-22.732 39.096-91.976-5.863-38.748-32.71-97.388 33.586-27.634-34.833 6.942-80.904-26.029-53.535 35.154-66.885 4.755-69.493-48.714-27.088 9.275-108.088 110.282-44.653z" stroke="#AD5CFF" stroke-width=".523"/><path d="M252.407 134.352l53.228 49.982 35.078 3.009 46.528-40.021 36.705 28.2 55.71-6.228-12.158 84.184 39.241 4.806 6.443 58.178-29.504 60.754 44.728 25.349 3.48 149.181-110.679-9.138-21.444 34.75-83.41-4.621-34.68-29.358-86.805 29.571-24.505-31.641 6.229-72.593-22.872-50.681 30.83-59.665 3.808-61.982-43.223-24.985 8.322-96.985 98.95-40.066z" stroke="#AD5CFF" stroke-width=".523"/><path d="M261.326 158.497l47.611 43.312 33.312 2.858 41.543-33.981 32.948 25.712 48.882-4.232-10.504 74.879 35.38 4.762 5.713 52.53-25.741 54.785 37.986 22.082 1.894 130.434-98.237-7.998-20.155 30.403-74.845-3.378-30.612-26.007-76.221 25.557-21.377-28.45 5.516-64.282-19.714-47.827 26.506-52.444 2.862-54.472-37.733-22.882 7.37-85.881 87.616-35.48z" stroke="#AD5CFF" stroke-width=".523"/><path d="M270.247 182.642l41.993 36.643 31.545 2.707 36.559-27.942 29.191 23.224 42.052-2.236-8.849 65.573 31.519 4.719 4.983 46.883-21.978 48.815 31.245 18.814.308 111.688-85.794-6.858-18.868 26.057-66.278-2.136-26.545-22.655-65.638 21.541-18.248-25.258 4.803-55.971-16.556-44.973 22.182-45.223 1.915-46.962-32.242-20.778 6.416-74.778 76.285-30.894z" stroke="#AD5CFF" stroke-width=".523"/><path d="M279.166 206.787l36.376 29.974 29.779 2.555 31.574-21.902 25.434 20.737 35.223-.24-7.194 56.267 27.658 4.675 4.252 41.235-18.214 42.845 24.503 15.547-1.278 92.942-73.352-5.719-17.579 21.711-57.713-.894-22.476-19.303-55.055 17.527-15.119-22.066 4.09-47.661-13.399-42.12 17.858-38.001.969-39.451-26.752-18.676 5.464-63.675 64.951-26.307z" stroke="#AD5CFF" stroke-width=".523"/><path d="M288.086 230.933l30.758 23.304 28.013 2.404 26.589-15.862 21.677 18.249 28.394 1.756-5.54 46.961 23.797 4.632 3.523 35.587-14.451 36.876 17.761 12.279-2.864 74.195-60.909-4.579-16.291 17.365-49.147.349-18.409-15.952-44.471 13.512-11.99-18.874 3.376-39.351-10.241-39.265 13.534-30.781.022-31.94-21.261-16.573 4.511-52.572 53.619-21.72z" stroke="#AD5CFF" stroke-width=".523"/><path d="M297.007 255.078l25.141 16.635 26.246 2.252 21.604-9.822 17.92 15.761 21.566 3.752-3.886 37.656 19.936 4.588 2.793 29.94-10.688 30.905 11.019 9.012-4.45 55.449-48.466-3.439-15.003 13.018-40.581 1.591-14.341-12.6-33.888 9.498-8.862-15.683 2.664-31.039-7.083-36.412 9.209-23.56-.924-24.43-15.771-14.469 3.558-41.469 42.287-17.134z" stroke="#AD5CFF" stroke-width=".523"/><path d="M305.926 279.224l19.524 9.964 24.48 2.101 16.619-3.782 14.163 13.273 14.737 5.748-2.231 28.351 16.075 4.544 2.062 24.292-6.924 24.936 4.277 5.745-6.036 36.702-36.023-2.299-13.715 8.672-32.016 2.833-10.273-9.249-23.304 5.484-5.733-12.491 1.95-22.729-3.925-33.558 4.885-16.34-1.87-16.919-10.281-12.366 2.606-30.365 30.953-12.547z" stroke="#AD5CFF" stroke-width=".523"/><path d="M314.846 303.369l13.906 3.295 22.714 1.949 11.634 2.259 10.407 10.785 7.907 7.744-.577 19.045 12.214 4.501 1.333 18.644-3.161 18.966-2.465 2.478-7.622 17.956-23.581-1.16-12.426 4.325-23.45 4.076-6.205-5.897-12.721 1.469-2.604-9.3 1.237-14.418-.768-30.704.561-9.118-2.817-9.409-4.79-10.263 1.653-19.262 19.621-7.961z" stroke="#AD5CFF" stroke-width=".523"/></svg>