<svg width="25" height="25" viewBox="0 0 25 25" fill="none" xmlns="http://www.w3.org/2000/svg"><path d="M10.303 1.264a2.394 2.394 0 012.394 0l8.431 4.868a2.394 2.394 0 011.197 2.074v9.735c0 .855-.456 1.646-1.197 2.073l-8.43 4.868a2.394 2.394 0 01-2.395 0l-8.431-4.868a2.394 2.394 0 01-1.197-2.073V8.206c0-.856.456-1.646 1.197-2.074l8.43-4.868z" fill="#E7E7E7" fill-opacity=".5"/><path d="M10.303 1.264a2.394 2.394 0 012.394 0l8.431 4.868a2.394 2.394 0 011.197 2.074v9.735c0 .855-.456 1.646-1.197 2.073l-8.43 4.868a2.394 2.394 0 01-2.395 0l-8.431-4.868a2.394 2.394 0 01-1.197-2.073V8.206c0-.856.456-1.646 1.197-2.074l8.43-4.868z" fill="url(#paint0_linear_502_3146)"/><path d="M10.303 1.264a2.394 2.394 0 012.394 0l8.431 4.868a2.394 2.394 0 011.197 2.074v9.735c0 .855-.456 1.646-1.197 2.073l-8.43 4.868a2.394 2.394 0 01-2.395 0l-8.431-4.868a2.394 2.394 0 01-1.197-2.073V8.206c0-.856.456-1.646 1.197-2.074l8.43-4.868z" fill="url(#paint1_linear_502_3146)"/><defs><linearGradient id="paint0_linear_502_3146" x1="11.5" y1=".573" x2="11.5" y2="25.573" gradientUnits="userSpaceOnUse"><stop stop-color="#fff"/><stop offset="1" stop-color="#fff" stop-opacity="0"/></linearGradient><linearGradient id="paint1_linear_502_3146" x1="-1" y1="13.073" x2="6.9" y2="13.073" gradientUnits="userSpaceOnUse"><stop stop-color="#8E54E9" stop-opacity=".25"/><stop offset="1" stop-color="#8E54E9" stop-opacity="0"/></linearGradient></defs></svg>