<svg width="1440" height="1700" viewBox="0 0 1440 1700" fill="none" xmlns="http://www.w3.org/2000/svg"><g filter="url(#filter0_f_609_988)" clip-path="url(#clip0_609_988)"><ellipse cx="284.661" cy="522.12" rx="1283.46" ry="313.557" fill="#181818"/><path d="M2417.18 925.306c0 173.394-322.75 313.964-720.89 313.964S975.4 1098.7 975.4 925.306c0-173.396 322.75-313.961 720.89-313.961s720.89 140.565 720.89 313.961z" fill="#0A0A24"/><ellipse cx="808.003" cy="522.12" rx="378.098" ry="164.669" fill="#0A0A24"/><ellipse cx="659.639" cy="-30.032" rx="419.997" ry="265.515" fill="#2B0759"/><ellipse opacity=".6" cx="1722.67" cy="-214.267" rx="717.987" ry="449.75" fill="red"/><ellipse opacity=".6" cx="-230.595" cy="453.603" rx="310.122" ry="194.262" fill="red"/><g opacity=".56" filter="url(#filter1_f_609_988)"><ellipse cx="1047.5" cy="515.528" rx="226.5" ry="226" fill="#EF84F5"/></g></g><defs><filter id="filter0_f_609_988" x="-1306.8" y="-972.017" width="4055.46" height="2519.28" filterUnits="userSpaceOnUse" color-interpolation-filters="sRGB"><feFlood flood-opacity="0" result="BackgroundImageFix"/><feBlend in="SourceGraphic" in2="BackgroundImageFix" result="shape"/><feGaussianBlur stdDeviation="154" result="effect1_foregroundBlur_609_988"/></filter><filter id="filter1_f_609_988" x="421" y="-110.472" width="1253" height="1252" filterUnits="userSpaceOnUse" color-interpolation-filters="sRGB"><feFlood flood-opacity="0" result="BackgroundImageFix"/><feBlend in="SourceGraphic" in2="BackgroundImageFix" result="shape"/><feGaussianBlur stdDeviation="200" result="effect1_foregroundBlur_609_988"/></filter><clipPath id="clip0_609_988"><path fill="#fff" d="M0 0h1440v1700H0z"/></clipPath></defs></svg>