<svg width="140" height="144" viewBox="0 0 140 144" fill="none" xmlns="http://www.w3.org/2000/svg"><g filter="url(#filter0_bdi_502_2740)"><path d="M68.803 57.691a2.394 2.394 0 012.394 0l12.328 7.118a2.394 2.394 0 011.197 2.073v14.236c0 .855-.456 1.645-1.197 2.073L71.197 90.31a2.394 2.394 0 01-2.394 0l-12.328-7.12a2.394 2.394 0 01-1.197-2.073V66.882c0-.855.456-1.645 1.197-2.073l12.328-7.118z" fill="#E7E7E7" fill-opacity=".5"/><path d="M68.803 57.691a2.394 2.394 0 012.394 0l12.328 7.118a2.394 2.394 0 011.197 2.073v14.236c0 .855-.456 1.645-1.197 2.073L71.197 90.31a2.394 2.394 0 01-2.394 0l-12.328-7.12a2.394 2.394 0 01-1.197-2.073V66.882c0-.855.456-1.645 1.197-2.073l12.328-7.118z" fill="url(#paint0_linear_502_2740)"/><path d="M68.803 57.691a2.394 2.394 0 012.394 0l12.328 7.118a2.394 2.394 0 011.197 2.073v14.236c0 .855-.456 1.645-1.197 2.073L71.197 90.31a2.394 2.394 0 01-2.394 0l-12.328-7.12a2.394 2.394 0 01-1.197-2.073V66.882c0-.855.456-1.645 1.197-2.073l12.328-7.118z" fill="url(#paint1_linear_502_2740)"/></g><defs><linearGradient id="paint0_linear_502_2740" x1="70" y1="57" x2="70" y2="91" gradientUnits="userSpaceOnUse"><stop stop-color="#fff"/><stop offset="1" stop-color="#fff" stop-opacity="0"/></linearGradient><linearGradient id="paint1_linear_502_2740" x1="53" y1="74" x2="63.744" y2="74" gradientUnits="userSpaceOnUse"><stop stop-color="#8E54E9" stop-opacity=".25"/><stop offset="1" stop-color="#8E54E9" stop-opacity="0"/></linearGradient><filter id="filter0_bdi_502_2740" x=".278" y=".37" width="139.445" height="143.259" filterUnits="userSpaceOnUse" color-interpolation-filters="sRGB"><feFlood flood-opacity="0" result="BackgroundImageFix"/><feGaussianBlur in="BackgroundImage" stdDeviation="5.456"/><feComposite in2="SourceAlpha" operator="in" result="effect1_backgroundBlur_502_2740"/><feColorMatrix in="SourceAlpha" values="0 0 0 0 0 0 0 0 0 0 0 0 0 0 0 0 0 0 127 0" result="hardAlpha"/><feOffset dy="-2"/><feGaussianBlur stdDeviation="27.5"/><feColorMatrix values="0 0 0 0 1 0 0 0 0 1 0 0 0 0 1 0 0 0 0.3 0"/><feBlend in2="effect1_backgroundBlur_502_2740" result="effect2_dropShadow_502_2740"/><feBlend in="SourceGraphic" in2="effect2_dropShadow_502_2740" result="shape"/><feColorMatrix in="SourceAlpha" values="0 0 0 0 0 0 0 0 0 0 0 0 0 0 0 0 0 0 127 0" result="hardAlpha"/><feOffset dy="16.367"/><feGaussianBlur stdDeviation="5.456"/><feComposite in2="hardAlpha" operator="arithmetic" k2="-1" k3="1"/><feColorMatrix values="0 0 0 0 0 0 0 0 0 0 0 0 0 0 0 0 0 0 0.15 0"/><feBlend in2="shape" result="effect3_innerShadow_502_2740"/></filter></defs></svg>