<svg width="1206" height="754" viewBox="0 0 1206 754" fill="none" xmlns="http://www.w3.org/2000/svg"><path fill-rule="evenodd" clip-rule="evenodd" d="M0 2.427h1154c27.06 0 49 21.938 49 49v176.907c0 27.062-21.94 49-49 49l-534.513-.001H51c-28.166 0-51 22.834-51 51V485.86h2V328.333c0-27.062 21.938-49 49-49h568.487l534.513.001c28.17 0 51-22.834 51-51V51.427c0-28.167-22.83-51-51-51H0v2z" fill="url(#paint0_linear_1181_329)"/><path d="M1205 555H51c-27.614 0-50-22.386-50-50v-43" stroke="url(#paint1_linear_1181_329)" stroke-width="2"/><path d="M62 197.427v-196h336.5v150" stroke="url(#paint2_linear_1181_329)" stroke-width="2"/><path d="M807 197.427v-196h336.5v150" stroke="url(#paint3_linear_1181_329)" stroke-width="2"/><path d="M435 476.427v-198h336.5v151.53" stroke="url(#paint4_linear_1181_329)" stroke-width="2"/><path d="M62 474.427v-196h336.5v150" stroke="url(#paint5_linear_1181_329)" stroke-width="2"/><path d="M435 751.427v-196h336.5v150" stroke="url(#paint6_linear_1181_329)" stroke-width="2"/><path d="M807 751.427v-196h336.5v150" stroke="url(#paint7_linear_1181_329)" stroke-width="2"/><path d="M435 197.427v-196h336.5v150" stroke="url(#paint8_linear_1181_329)" stroke-width="2"/><path d="M807 476.427v-198h336.5v151.53" stroke="url(#paint9_linear_1181_329)" stroke-width="2"/><path d="M62 754.001v-198l336.5-.501v152.031" stroke="url(#paint10_linear_1181_329)" stroke-width="2"/><defs><linearGradient id="paint0_linear_1181_329" x1="602.501" y1="68.019" x2="602.501" y2="485.86" gradientUnits="userSpaceOnUse"><stop stop-color="#4776E6"/><stop offset="1" stop-color="#8E54E9"/></linearGradient><linearGradient id="paint1_linear_1181_329" x1="602.5" y1="555" x2="602.5" y2="462" gradientUnits="userSpaceOnUse"><stop stop-color="#4776E6"/><stop offset="1" stop-color="#8E54E9"/></linearGradient><linearGradient id="paint2_linear_1181_329" x1="230.25" y1="1.427" x2="230.25" y2="197.427" gradientUnits="userSpaceOnUse"><stop stop-color="#4776E6"/><stop offset=".599" stop-color="#8E54E9" stop-opacity=".563"/><stop offset="1" stop-color="#fff" stop-opacity="0"/></linearGradient><linearGradient id="paint3_linear_1181_329" x1="975.25" y1="1.427" x2="975.25" y2="197.427" gradientUnits="userSpaceOnUse"><stop stop-color="#4776E6"/><stop offset=".599" stop-color="#8E54E9" stop-opacity=".563"/><stop offset="1" stop-color="#fff" stop-opacity="0"/></linearGradient><linearGradient id="paint4_linear_1181_329" x1="603.25" y1="278.427" x2="603.25" y2="476.427" gradientUnits="userSpaceOnUse"><stop stop-color="#4776E6"/><stop offset=".599" stop-color="#8E54E9" stop-opacity=".563"/><stop offset="1" stop-color="#fff" stop-opacity="0"/></linearGradient><linearGradient id="paint5_linear_1181_329" x1="230.25" y1="278.427" x2="230.25" y2="474.427" gradientUnits="userSpaceOnUse"><stop stop-color="#4776E6"/><stop offset=".599" stop-color="#8E54E9" stop-opacity=".563"/><stop offset="1" stop-color="#fff" stop-opacity="0"/></linearGradient><linearGradient id="paint6_linear_1181_329" x1="603.25" y1="555.427" x2="603.25" y2="751.427" gradientUnits="userSpaceOnUse"><stop stop-color="#4776E6"/><stop offset=".599" stop-color="#8E54E9" stop-opacity=".563"/><stop offset="1" stop-color="#fff" stop-opacity="0"/></linearGradient><linearGradient id="paint7_linear_1181_329" x1="975.25" y1="555.427" x2="975.25" y2="751.427" gradientUnits="userSpaceOnUse"><stop stop-color="#4776E6"/><stop offset=".599" stop-color="#8E54E9" stop-opacity=".563"/><stop offset="1" stop-color="#fff" stop-opacity="0"/></linearGradient><linearGradient id="paint8_linear_1181_329" x1="603.25" y1="1.427" x2="603.25" y2="197.427" gradientUnits="userSpaceOnUse"><stop stop-color="#4776E6"/><stop offset=".599" stop-color="#8E54E9" stop-opacity=".563"/><stop offset="1" stop-color="#fff" stop-opacity="0"/></linearGradient><linearGradient id="paint9_linear_1181_329" x1="975.25" y1="278.427" x2="975.25" y2="476.427" gradientUnits="userSpaceOnUse"><stop stop-color="#4776E6"/><stop offset=".599" stop-color="#8E54E9" stop-opacity=".563"/><stop offset="1" stop-color="#fff" stop-opacity="0"/></linearGradient><linearGradient id="paint10_linear_1181_329" x1="230.25" y1="556" x2="230.25" y2="754" gradientUnits="userSpaceOnUse"><stop stop-color="#4776E6"/><stop offset=".599" stop-color="#8E54E9" stop-opacity=".563"/><stop offset="1" stop-color="#fff" stop-opacity="0"/></linearGradient></defs></svg>