<svg width="198" height="116" viewBox="0 0 198 116" fill="none" xmlns="http://www.w3.org/2000/svg"><path d="M60.188 31.185V21.119h8.246a1.818 1.818 0 011.582.924c.168.27.252.569.252.896v2.828c0 .336-.084.644-.252.924a1.86 1.86 0 01-.658.658c-.28.158-.588.238-.924.238L61.7 27.6v3.584h-1.512zm1.862-5.124h6.342a.341.341 0 00.252-.098.324.324 0 00.098-.238V22.98a.324.324 0 00-.098-.238.32.32 0 00-.252-.112H62.05a.348.348 0 00-.252.112.324.324 0 00-.098.238v2.744c0 .093.033.172.098.238a.373.373 0 00.252.098zm10.976 5.124c-.336 0-.644-.084-.924-.252a2.016 2.016 0 01-.658-.658 1.766 1.766 0 01-.238-.91v-2.996h6.734v-1.442a.324.324 0 00-.098-.238.305.305 0 00-.238-.112h-6.398v-1.512h6.44c.336 0 .64.084.91.252.28.158.5.378.658.658.168.28.252.583.252.91v6.3h-6.44zm.042-1.512h4.872v-1.89h-5.222v1.54c0 .093.033.177.098.252a.373.373 0 00.252.098zm9.147 4.62v-1.526h4.97a.305.305 0 00.238-.112.305.305 0 00.112-.238v-1.232h-4.928c-.327 0-.63-.08-.91-.238a1.93 1.93 0 01-.672-.672 1.815 1.815 0 01-.238-.91v-6.272H82.3v6.23c0 .093.033.177.098.252a.373.373 0 00.252.098h4.536a.324.324 0 00.238-.098.348.348 0 00.112-.252v-6.23h1.512v9.38c0 .336-.084.639-.252.91-.159.28-.378.499-.658.658a1.69 1.69 0 01-.91.252h-5.012zm8.324-3.108v-8.12h10.374c.345 0 .653.084.924.252.271.168.485.387.644.658.168.27.252.574.252.91v6.3h-1.498v-6.258a.304.304 0 00-.112-.238.305.305 0 00-.238-.112h-3.122a.32.32 0 00-.252.112.324.324 0 00-.098.238v6.258h-1.526v-6.258a.305.305 0 00-.112-.238.305.305 0 00-.238-.112h-3.136a.305.305 0 00-.238.112.324.324 0 00-.098.238v6.258H90.54zm15.259 0c-.336 0-.64-.084-.91-.252a2.013 2.013 0 01-.658-.658 1.69 1.69 0 01-.252-.91v-4.48c0-.336.084-.64.252-.91.168-.271.387-.49.658-.658.27-.168.574-.252.91-.252h4.62c.336 0 .639.084.91.252.28.158.499.378.658.658.168.28.252.583.252.91v2.996h-6.748v1.442a.37.37 0 00.098.252.37.37 0 00.252.098h6.398v1.512h-6.44zm-.308-4.718h5.222v-1.54a.325.325 0 00-.098-.238.306.306 0 00-.238-.112h-4.536a.346.346 0 00-.252.112.321.321 0 00-.098.238v1.54zm8.223 4.718v-8.12h6.44c.336 0 .639.084.91.252.28.168.499.387.658.658.168.27.252.574.252.91v6.3h-1.512v-6.258a.304.304 0 00-.112-.238.305.305 0 00-.238-.112h-4.536a.35.35 0 00-.252.112.325.325 0 00-.098.238v6.258h-1.512zm11.554 0c-.336 0-.644-.084-.924-.252a2.013 2.013 0 01-.658-.658 1.763 1.763 0 01-.238-.91v-8.862h1.512v2.562h3.332v1.512h-3.332v4.746c0 .093.033.177.098.252a.374.374 0 00.252.098h2.982v1.512h-3.024zm5.932 0c-.336 0-.639-.084-.91-.252a2.013 2.013 0 01-.658-.658 1.69 1.69 0 01-.252-.91v-.21h1.512v.168c0 .093.033.177.098.252a.374.374 0 00.252.098h4.536a.324.324 0 00.238-.098.375.375 0 00.098-.252V28.23a.325.325 0 00-.098-.238.305.305 0 00-.238-.112h-4.578c-.336 0-.639-.08-.91-.238a2.013 2.013 0 01-.658-.658 1.762 1.762 0 01-.252-.924v-1.176c0-.336.084-.64.252-.91.168-.271.387-.49.658-.658.271-.168.574-.252.91-.252h4.62c.336 0 .639.084.91.252.28.168.499.387.658.658.168.27.252.574.252.91v.21h-1.526v-.168a.325.325 0 00-.098-.238.305.305 0 00-.238-.112h-4.536a.35.35 0 00-.252.112.325.325 0 00-.098.238v1.092c0 .093.033.177.098.252a.374.374 0 00.252.098h4.578c.336 0 .639.084.91.252.28.158.499.378.658.658.168.27.252.574.252.91v1.176c0 .336-.084.639-.252.91a1.86 1.86 0 01-.658.658 1.691 1.691 0 01-.91.252h-4.62z" fill="#fff"/><path d="M1 115.116V.952h196v87.37" stroke="url(#paint0_linear_460_685)" stroke-width="1.165"/><path opacity=".6" d="M73.607 50.304c0 .696-.24 1.276-.72 1.74-.472.456-1.196.684-2.172.684h-1.608v3.492h-1.092v-8.364h2.7c.944 0 1.66.228 2.148.684.496.456.744 1.044.744 1.764zm-2.892 1.524c.608 0 1.056-.132 1.344-.396.288-.264.432-.64.432-1.128 0-1.032-.592-1.548-1.776-1.548h-1.608v3.072h1.608zm3.84 1.08c0-.672.137-1.26.409-1.764a2.964 2.964 0 011.116-1.188 3.11 3.11 0 011.596-.42c.576 0 1.076.124 1.5.372.424.248.74.56.948.936v-1.2h1.104v6.576h-1.104v-1.224c-.216.384-.54.704-.972.96-.424.248-.92.372-1.488.372a2.98 2.98 0 01-1.584-.432 3.03 3.03 0 01-1.116-1.212c-.272-.52-.408-1.112-.408-1.776zm5.569.012c0-.496-.1-.928-.3-1.296a2.065 2.065 0 00-.816-.84 2.14 2.14 0 00-1.116-.3c-.408 0-.78.096-1.116.288a2.09 2.09 0 00-.804.84c-.2.368-.3.8-.3 1.296 0 .504.1.944.3 1.32.2.368.468.652.804.852a2.21 2.21 0 001.116.288c.408 0 .78-.096 1.116-.288.344-.2.616-.484.816-.852.2-.376.3-.812.3-1.308zm8.613-3.276l-3.96 9.672H83.65l1.296-3.168-2.652-6.504h1.212l2.064 5.328 2.04-5.328h1.128zm4.861-1.068a.718.718 0 01-.528-.216.718.718 0 01-.216-.528c0-.208.072-.384.216-.528a.718.718 0 01.528-.216c.2 0 .368.072.504.216.144.144.216.32.216.528a.718.718 0 01-.216.528.666.666 0 01-.504.216zm.528 1.068v6.576h-1.092v-6.576h1.092zm5.065-.12c.8 0 1.448.244 1.944.732.496.48.744 1.176.744 2.088v3.876h-1.08V52.5c0-.656-.164-1.156-.492-1.5-.328-.352-.776-.528-1.344-.528-.576 0-1.036.18-1.38.54-.336.36-.504.884-.504 1.572v3.636h-1.092v-6.576h1.092v.936c.216-.336.508-.596.876-.78a2.774 2.774 0 011.236-.276zm12.399-1.668v.888h-3.636v2.82h2.952v.888h-2.952v3.768h-1.092v-8.364h4.728zm1.883.72a.718.718 0 01-.528-.216.718.718 0 01-.216-.528c0-.208.072-.384.216-.528a.718.718 0 01.528-.216c.2 0 .368.072.504.216.144.144.216.32.216.528a.718.718 0 01-.216.528.666.666 0 01-.504.216zm.528 1.068v6.576h-1.092v-6.576h1.092zm1.453 3.264c0-.672.136-1.26.408-1.764a2.964 2.964 0 011.116-1.188 3.11 3.11 0 011.596-.42c.576 0 1.076.124 1.5.372.424.248.74.56.948.936v-1.2h1.104v6.576h-1.104v-1.224c-.216.384-.54.704-.972.96-.424.248-.92.372-1.488.372a2.98 2.98 0 01-1.584-.432 3.03 3.03 0 01-1.116-1.212c-.272-.52-.408-1.112-.408-1.776zm5.568.012c0-.496-.1-.928-.3-1.296a2.065 2.065 0 00-.816-.84 2.14 2.14 0 00-1.116-.3c-.408 0-.78.096-1.116.288a2.09 2.09 0 00-.804.84c-.2.368-.3.8-.3 1.296 0 .504.1.944.3 1.32.2.368.468.652.804.852a2.21 2.21 0 001.116.288c.408 0 .78-.096 1.116-.288.344-.2.616-.484.816-.852.2-.376.3-.812.3-1.308zm4.282-2.376v3.876c0 .32.068.548.204.684.136.128.372.192.708.192h.804v.924h-.984c-.608 0-1.064-.14-1.368-.42-.304-.28-.456-.74-.456-1.38v-3.876h-.852v-.9h.852v-1.656h1.092v1.656h1.716v.9h-1.716zm-59.69 13.76c0 .696-.24 1.276-.72 1.74-.472.456-1.196.684-2.172.684h-1.608v3.492h-1.092v-8.364h2.7c.944 0 1.66.228 2.148.684.496.456.744 1.044.744 1.764zm-2.892 1.524c.608 0 1.056-.132 1.344-.396.288-.264.432-.64.432-1.128 0-1.032-.592-1.548-1.776-1.548h-1.608v3.072h1.608zm3.842 1.08c0-.672.136-1.26.408-1.764a2.964 2.964 0 011.116-1.188 3.11 3.11 0 011.596-.42c.576 0 1.076.124 1.5.372.424.248.74.56.948.936v-1.2h1.104v6.576h-1.104v-1.224c-.216.384-.54.704-.972.96-.424.248-.92.372-1.488.372a2.98 2.98 0 01-1.584-.432 3.03 3.03 0 01-1.116-1.212c-.272-.52-.408-1.112-.408-1.776zm5.568.012c0-.496-.1-.928-.3-1.296a2.065 2.065 0 00-.816-.84 2.14 2.14 0 00-1.116-.3c-.408 0-.78.096-1.116.288a2.09 2.09 0 00-.804.84c-.2.368-.3.8-.3 1.296 0 .504.1.944.3 1.32.2.368.468.652.804.852a2.21 2.21 0 001.116.288c.408 0 .78-.096 1.116-.288.344-.2.616-.484.816-.852.2-.376.3-.812.3-1.308zm8.613-3.276l-3.96 9.672h-1.128l1.296-3.168-2.652-6.504h1.212l2.064 5.328 2.04-5.328h1.128zm4.86-1.068a.718.718 0 01-.527-.216.718.718 0 01-.216-.528c0-.208.072-.384.216-.528a.718.718 0 01.528-.216c.2 0 .368.072.504.216.144.144.216.32.216.528a.718.718 0 01-.216.528.666.666 0 01-.504.216zm.529 1.068v6.576h-1.092v-6.576h1.092zm5.065-.12c.8 0 1.448.244 1.944.732.496.48.744 1.176.744 2.088v3.876h-1.08V66.5c0-.656-.164-1.156-.492-1.5-.328-.352-.776-.528-1.344-.528-.576 0-1.036.18-1.38.54-.336.36-.504.884-.504 1.572v3.636h-1.092v-6.576h1.092v.936c.216-.336.508-.596.876-.78a2.774 2.774 0 011.236-.276zm7.263 2.508c0-.816.184-1.548.552-2.196a4.012 4.012 0 011.5-1.536 4.185 4.185 0 012.124-.552c.912 0 1.708.22 2.388.66.68.44 1.176 1.064 1.488 1.872h-1.308a2.614 2.614 0 00-1.008-1.164c-.432-.272-.952-.408-1.56-.408a3.05 3.05 0 00-1.572.408c-.464.272-.828.66-1.092 1.164-.264.496-.396 1.08-.396 1.752 0 .664.132 1.248.396 1.752.264.496.628.88 1.092 1.152a3.05 3.05 0 001.572.408c.608 0 1.128-.132 1.56-.396.44-.272.776-.66 1.008-1.164h1.308c-.312.8-.808 1.42-1.488 1.86-.68.432-1.476.648-2.388.648-.776 0-1.484-.18-2.124-.54a4.035 4.035 0 01-1.5-1.524c-.368-.648-.552-1.38-.552-2.196zm10.77-1.32c.192-.376.464-.668.816-.876.36-.208.796-.312 1.308-.312v1.128h-.288c-1.224 0-1.836.664-1.836 1.992v3.576h-1.092v-6.576h1.092v1.068zm9.048-1.068l-3.96 9.672h-1.128l1.296-3.168-2.652-6.504h1.212l2.064 5.328 2.04-5.328h1.128zm2.19 1.212c.216-.376.536-.688.96-.936.432-.256.932-.384 1.5-.384.584 0 1.112.14 1.584.42.48.28.856.676 1.128 1.188.272.504.408 1.092.408 1.764 0 .664-.136 1.256-.408 1.776a3.002 3.002 0 01-2.712 1.644c-.56 0-1.056-.124-1.488-.372a2.764 2.764 0 01-.972-.948v4.332h-1.092v-9.696h1.092v1.212zm4.464 2.052c0-.496-.1-.928-.3-1.296a2.065 2.065 0 00-.816-.84 2.21 2.21 0 00-1.116-.288c-.4 0-.772.1-1.116.3a2.151 2.151 0 00-.816.852c-.2.368-.3.796-.3 1.284 0 .496.1.932.3 1.308.208.368.48.652.816.852.344.192.716.288 1.116.288.408 0 .78-.096 1.116-.288.344-.2.616-.484.816-.852.2-.376.3-.816.3-1.32zm3.885-2.364v3.876c0 .32.068.548.204.684.136.128.372.192.708.192h.804v.924h-.984c-.608 0-1.064-.14-1.368-.42-.304-.28-.456-.74-.456-1.38v-3.876h-.852v-.9h.852v-1.656h1.092v1.656h1.716v.9h-1.716zm5.907 5.784a3.4 3.4 0 01-1.68-.42 3.053 3.053 0 01-1.176-1.188c-.28-.52-.42-1.12-.42-1.8 0-.672.144-1.264.432-1.776.296-.52.696-.916 1.2-1.188a3.424 3.424 0 011.692-.42c.624 0 1.188.14 1.692.42.504.272.9.664 1.188 1.176.296.512.444 1.108.444 1.788 0 .68-.152 1.28-.456 1.8a3.09 3.09 0 01-1.212 1.188c-.512.28-1.08.42-1.704.42zm0-.96c.392 0 .76-.092 1.104-.276.344-.184.62-.46.828-.828.216-.368.324-.816.324-1.344 0-.528-.104-.976-.312-1.344a2.003 2.003 0 00-.816-.816 2.237 2.237 0 00-1.092-.276c-.4 0-.768.092-1.104.276a1.951 1.951 0 00-.792.816c-.2.368-.3.816-.3 1.344 0 .536.096.988.288 1.356.2.368.464.644.792.828.328.176.688.264 1.08.264z" fill="#fff"/><defs><linearGradient id="paint0_linear_460_685" x1="99" y1=".952" x2="99" y2="115.116" gradientUnits="userSpaceOnUse"><stop stop-color="#4776E6"/><stop offset=".599" stop-color="#8E54E9" stop-opacity=".563"/><stop offset="1" stop-color="#fff" stop-opacity="0"/></linearGradient></defs></svg>