<svg width="71" height="72" viewBox="0 0 71 72" fill="none" xmlns="http://www.w3.org/2000/svg"><g filter="url(#filter0_bd_502_2422)"><path fill-rule="evenodd" clip-rule="evenodd" d="M53.696 5.573H39.267c-.996 0-1.803.807-1.803 1.804v9.018c0 .997.807 1.803 1.803 1.803h5.411a1.803 1.803 0 100 3.607h3.607a1.803 1.803 0 100-3.607h5.411c.997 0 1.804-.806 1.804-1.803V7.377c0-.997-.807-1.804-1.804-1.804zM21.232 39.841H6.804c-.997 0-1.804.807-1.804 1.804v9.018c0 .997.807 1.803 1.804 1.803h5.41a1.803 1.803 0 100 3.607h3.607a1.803 1.803 0 100-3.607h5.411c.997 0 1.804-.806 1.804-1.803v-9.018c0-.997-.807-1.804-1.804-1.804zm23.446-14.428a1.803 1.803 0 113.607 0v5.41c0 .997-.806 1.804-1.803 1.804H36.407l-4.882 4.882a1.8 1.8 0 01-2.55 0l-4.883-4.882h-8.271v3.607a1.803 1.803 0 11-3.607 0v-5.41c0-.998.807-1.804 1.803-1.804h10.075l4.883-4.883a1.803 1.803 0 012.55 0l4.882 4.883h8.271v-3.607z" fill="url(#paint0_linear_502_2422)"/></g><defs><linearGradient id="paint0_linear_502_2422" x1="-8.072" y1="43.056" x2="12.736" y2="89.279" gradientUnits="userSpaceOnUse"><stop stop-color="#fff"/><stop offset="1" stop-color="#fff" stop-opacity=".2"/></linearGradient><filter id="filter0_bd_502_2422" x="-10" y="-9.427" width="80.499" height="80.5" filterUnits="userSpaceOnUse" color-interpolation-filters="sRGB"><feFlood flood-opacity="0" result="BackgroundImageFix"/><feGaussianBlur in="BackgroundImage" stdDeviation="7.5"/><feComposite in2="SourceAlpha" operator="in" result="effect1_backgroundBlur_502_2422"/><feColorMatrix in="SourceAlpha" values="0 0 0 0 0 0 0 0 0 0 0 0 0 0 0 0 0 0 127 0" result="hardAlpha"/><feOffset dx="5" dy="5"/><feGaussianBlur stdDeviation="5"/><feColorMatrix values="0 0 0 0 0.577356 0 0 0 0 0.359375 0 0 0 0 0.9375 0 0 0 0.5 0"/><feBlend in2="effect1_backgroundBlur_502_2422" result="effect2_dropShadow_502_2422"/><feBlend in="SourceGraphic" in2="effect2_dropShadow_502_2422" result="shape"/></filter></defs></svg>