<svg width="49" height="68" viewBox="0 0 49 68" fill="none" xmlns="http://www.w3.org/2000/svg"><g filter="url(#filter0_bd_502_2406)"><path fill-rule="evenodd" clip-rule="evenodd" d="M20.64 6.14l12.063 20.067a1.168 1.168 0 01-.289 1.527l-12.06 9.305a1.168 1.168 0 01-1.428 0L6.864 27.734a1.168 1.168 0 01-.289-1.527L18.638 6.139a1.167 1.167 0 012.003 0zm10.15 20.255h-.002l.001-.001c.23-.503.01-1.096-.492-1.327L20.06 20.426a1 1 0 00-.834 0L8.988 25.067a.999.999 0 00-.513 1.33 1.004 1.004 0 001.339.494l9.454-4.28a.899.899 0 01.741 0l9.454 4.284a.998.998 0 001.325-.5zm2.853 7.403a1.167 1.167 0 00-.93-1.857h-.074a1.165 1.165 0 00-.651.242l-12.35 9.362-12.35-9.369a1.168 1.168 0 00-1.668 1.6l13.06 18.69a1.167 1.167 0 001.916 0l13.047-18.668z" fill="url(#paint0_linear_502_2406)"/></g><defs><linearGradient id="paint0_linear_502_2406" x1="-1.966" y1="40.749" x2="23.069" y2="74.157" gradientUnits="userSpaceOnUse"><stop stop-color="#fff"/><stop offset="1" stop-color="#fff" stop-opacity=".2"/></linearGradient><filter id="filter0_bd_502_2406" x="-9.598" y="-9.427" width="58.468" height="77.392" filterUnits="userSpaceOnUse" color-interpolation-filters="sRGB"><feFlood flood-opacity="0" result="BackgroundImageFix"/><feGaussianBlur in="BackgroundImage" stdDeviation="7.5"/><feComposite in2="SourceAlpha" operator="in" result="effect1_backgroundBlur_502_2406"/><feColorMatrix in="SourceAlpha" values="0 0 0 0 0 0 0 0 0 0 0 0 0 0 0 0 0 0 127 0" result="hardAlpha"/><feOffset dx="5" dy="5"/><feGaussianBlur stdDeviation="5"/><feColorMatrix values="0 0 0 0 0.577356 0 0 0 0 0.359375 0 0 0 0 0.9375 0 0 0 0.5 0"/><feBlend in2="effect1_backgroundBlur_502_2406" result="effect2_dropShadow_502_2406"/><feBlend in="SourceGraphic" in2="effect2_dropShadow_502_2406" result="shape"/></filter></defs></svg>