<svg width="75" height="75" viewBox="0 0 75 75" fill="none" xmlns="http://www.w3.org/2000/svg"><g filter="url(#filter0_bd_502_2391)"><path fill-rule="evenodd" clip-rule="evenodd" d="M9.464 10.654L7.54 12.577a1.488 1.488 0 01-2.104-2.104L9.9 6.009a1.488 1.488 0 012.104 0l4.464 4.464a1.488 1.488 0 01-2.105 2.104l-1.923-1.923v14.635a9.3 9.3 0 1018.599 0v-6.696a7.068 7.068 0 0114.136 0v3.348a1.488 1.488 0 01-2.976 0v-3.348a4.093 4.093 0 00-8.184 0v6.696a12.276 12.276 0 01-24.551 0V10.654zM58.567 51.7a3.685 3.685 0 01-.902 2.4 2.528 2.528 0 011.645 2.361v.893a2.53 2.53 0 01-2.529 2.53H42.497a2.531 2.531 0 01-2.53-2.53v-.893a2.515 2.515 0 01.883-1.904 3.7 3.7 0 01-1.014-1.318l-.091-.217a17.85 17.85 0 00-5.719-7.526l-1.94-1.41a2.541 2.541 0 01-.999-1.56 2.426 2.426 0 012.693-2.88l.096.012c1.66.21 3.249.802 4.641 1.73l.571.383a1.04 1.04 0 001.623-.864V28.491a2.827 2.827 0 012.827-2.827h.004a2.83 2.83 0 012.823 2.826v4.24a2.518 2.518 0 011.042-.225h.595a2.532 2.532 0 012.37 1.643c.368-.2.782-.304 1.201-.304h.596a2.532 2.532 0 012.528 2.457c.327-.15.683-.226 1.043-.225h.297a2.531 2.531 0 012.53 2.53v13.093z" fill="url(#paint0_linear_502_2391)"/></g><defs><linearGradient id="paint0_linear_502_2391" x1="-9.058" y1="45.883" x2="13.319" y2="95.595" gradientUnits="userSpaceOnUse"><stop stop-color="#fff"/><stop offset="1" stop-color="#fff" stop-opacity=".2"/></linearGradient><filter id="filter0_bd_502_2391" x="-10" y="-9.427" width="84.31" height="84.31" filterUnits="userSpaceOnUse" color-interpolation-filters="sRGB"><feFlood flood-opacity="0" result="BackgroundImageFix"/><feGaussianBlur in="BackgroundImage" stdDeviation="7.5"/><feComposite in2="SourceAlpha" operator="in" result="effect1_backgroundBlur_502_2391"/><feColorMatrix in="SourceAlpha" values="0 0 0 0 0 0 0 0 0 0 0 0 0 0 0 0 0 0 127 0" result="hardAlpha"/><feOffset dx="5" dy="5"/><feGaussianBlur stdDeviation="5"/><feColorMatrix values="0 0 0 0 0.577356 0 0 0 0 0.359375 0 0 0 0 0.9375 0 0 0 0.5 0"/><feBlend in2="effect1_backgroundBlur_502_2391" result="effect2_dropShadow_502_2391"/><feBlend in="SourceGraphic" in2="effect2_dropShadow_502_2391" result="shape"/></filter></defs></svg>