<svg width="158" height="61" viewBox="0 0 158 61" fill="none" xmlns="http://www.w3.org/2000/svg"><path d="M15.686 19.296L31.09 2.51A7.755 7.755 0 0136.804 0h113.31a7.755 7.755 0 017.755 7.755v45.49A7.755 7.755 0 01150.114 61H7.755A7.755 7.755 0 010 53.245V38.62c0-2.015.784-3.95 2.186-5.397l13.5-13.928z" fill="#fff"/><path d="M15.686 19.296L31.09 2.51A7.755 7.755 0 0136.804 0h113.31a7.755 7.755 0 017.755 7.755v45.49A7.755 7.755 0 01150.114 61H7.755A7.755 7.755 0 010 53.245V38.62c0-2.015.784-3.95 2.186-5.397l13.5-13.928z" fill="url(#paint0_linear_897_503)"/><defs><linearGradient id="paint0_linear_897_503" x1="-20.68" y1="57.543" x2="219.147" y2="27.48" gradientUnits="userSpaceOnUse"><stop offset=".142" stop-color="#8E54E9"/><stop offset=".801" stop-color="#4776E6"/></linearGradient></defs></svg>