<svg width="998" height="676" viewBox="0 0 998 676" fill="none" xmlns="http://www.w3.org/2000/svg"><g filter="url(#filter0_b_1083_327)" clip-path="url(#clip0_1083_327)"><path d="M0 15.427c0-8.284 6.716-15 15-15h863.649c3.863 0 7.577 1.49 10.368 4.16l104.351 99.806a14.999 14.999 0 014.632 10.84v545.194c0 8.284-6.716 15-15 15H121.472a14.997 14.997 0 01-10.885-4.68L4.115 558.443A15 15 0 010 548.123V15.427z" fill="url(#paint0_linear_1083_327)" fill-opacity=".75"/></g><defs><linearGradient id="paint0_linear_1083_327" x1="499" y1=".427" x2="499" y2="675.427" gradientUnits="userSpaceOnUse"><stop stop-color="#fff" stop-opacity="0"/><stop offset="1" stop-color="#fff" stop-opacity=".4"/></linearGradient><clipPath id="clip0_1083_327"><path fill="#fff" transform="translate(0 .427)" d="M0 0h998v675H0z"/></clipPath><filter id="filter0_b_1083_327" x="-25" y="-24.573" width="1048" height="725" filterUnits="userSpaceOnUse" color-interpolation-filters="sRGB"><feFlood flood-opacity="0" result="BackgroundImageFix"/><feGaussianBlur in="BackgroundImage" stdDeviation="12.5"/><feComposite in2="SourceAlpha" operator="in" result="effect1_backgroundBlur_1083_327"/><feBlend in="SourceGraphic" in2="effect1_backgroundBlur_1083_327" result="shape"/></filter></defs></svg>