<svg width="72" height="67" viewBox="0 0 72 67" fill="none" xmlns="http://www.w3.org/2000/svg"><g filter="url(#filter0_bd_460_424)"><path fill-rule="evenodd" clip-rule="evenodd" d="M51.537 24.343c-.764-.965-2.017-1.524-3.326-1.524H23.027c-1.308 0-2.562.56-3.325 1.525l-.382.457h32.652l-.435-.458zm-32.381 2.134H52.08c1.962 0 3.597 1.626 3.543 3.71v10.669c0 2.032-1.635 3.709-3.597 3.709h-10.14c-1.471 0-2.78-.813-3.488-2.084l-1.309-2.388c-.654-1.219-2.398-1.27-3.107-.05l-1.363 2.286c-.818 1.372-2.29 2.236-3.87 2.236h-9.594c-1.963 0-3.598-1.677-3.598-3.71V30.187c0-2.032 1.58-3.709 3.598-3.709zm38.267 5.085a1.145 1.145 0 012.29 0v4.95a1.145 1.145 0 11-2.29 0v-4.95zM12.39 37.585a1.145 1.145 0 01-.92-1.123v-4.88a1.145 1.145 0 112.289 0v4.88c0 .722-.66 1.264-1.369 1.123z" fill="url(#paint0_linear_460_424)"/></g><defs><linearGradient id="paint0_linear_460_424" x1="-1.018" y1="38.959" x2="3.647" y2="61.95" gradientUnits="userSpaceOnUse"><stop stop-color="#fff"/><stop offset="1" stop-color="#fff" stop-opacity=".2"/></linearGradient><filter id="filter0_bd_460_424" x="-.778" y="10.571" width="72.739" height="46.241" filterUnits="userSpaceOnUse" color-interpolation-filters="sRGB"><feFlood flood-opacity="0" result="BackgroundImageFix"/><feGaussianBlur in="BackgroundImage" stdDeviation="6.124"/><feComposite in2="SourceAlpha" operator="in" result="effect1_backgroundBlur_460_424"/><feColorMatrix in="SourceAlpha" values="0 0 0 0 0 0 0 0 0 0 0 0 0 0 0 0 0 0 127 0" result="hardAlpha"/><feOffset dx="4.083" dy="4.083"/><feGaussianBlur stdDeviation="4.083"/><feColorMatrix values="0 0 0 0 0.577356 0 0 0 0 0.359375 0 0 0 0 0.9375 0 0 0 0.5 0"/><feBlend in2="effect1_backgroundBlur_460_424" result="effect2_dropShadow_460_424"/><feBlend in="SourceGraphic" in2="effect2_dropShadow_460_424" result="shape"/></filter></defs></svg>