<svg width="84" height="84" viewBox="0 0 84 84" fill="none" xmlns="http://www.w3.org/2000/svg"><g filter="url(#filter0_bd_502_2468)"><path d="M59.215 41.858c-.899 0-1.724.497-2.373 1.323a5.244 5.244 0 01-.202.281c-.65.826-1.473 1.322-2.372 1.322-2.09 0-3.785-2.674-3.785-5.973v-3.01a2.711 2.711 0 00-2.711-2.71h-3.01c-3.299 0-5.974-1.695-5.974-3.786 0-.898.497-1.723 1.323-2.372.097-.066.192-.132.282-.202.825-.65 1.322-1.474 1.322-2.373 0-2.09-2.674-3.785-5.974-3.785-3.3 0-5.973 1.695-5.973 3.785 0 .899.497 1.724 1.322 2.373.097.065.192.132.282.202.826.65 1.322 1.473 1.322 2.372 0 2.09-2.674 3.785-5.974 3.785h-3.009A2.711 2.711 0 0021 35.801v24.061a2.711 2.711 0 002.711 2.711h24.06a2.711 2.711 0 002.712-2.711v-3.01c0-3.299 1.695-5.973 3.785-5.973.898 0 1.723.497 2.372 1.322.066.097.133.193.203.282.649.826 1.473 1.322 2.372 1.322 2.09 0 3.785-2.674 3.785-5.973 0-3.3-1.696-5.974-3.785-5.974z" fill="url(#paint0_linear_502_2468)"/></g><defs><linearGradient id="paint0_linear_502_2468" x1="10.128" y1="51.746" x2="27.433" y2="90.19" gradientUnits="userSpaceOnUse"><stop stop-color="#fff"/><stop offset="1" stop-color="#fff" stop-opacity=".2"/></linearGradient><filter id="filter0_bd_502_2468" x="6" y="5.573" width="72" height="72" filterUnits="userSpaceOnUse" color-interpolation-filters="sRGB"><feFlood flood-opacity="0" result="BackgroundImageFix"/><feGaussianBlur in="BackgroundImage" stdDeviation="7.5"/><feComposite in2="SourceAlpha" operator="in" result="effect1_backgroundBlur_502_2468"/><feColorMatrix in="SourceAlpha" values="0 0 0 0 0 0 0 0 0 0 0 0 0 0 0 0 0 0 127 0" result="hardAlpha"/><feOffset dx="5" dy="5"/><feGaussianBlur stdDeviation="5"/><feColorMatrix values="0 0 0 0 0.577356 0 0 0 0 0.359375 0 0 0 0 0.9375 0 0 0 0.5 0"/><feBlend in2="effect1_backgroundBlur_502_2468" result="effect2_dropShadow_502_2468"/><feBlend in="SourceGraphic" in2="effect2_dropShadow_502_2468" result="shape"/></filter></defs></svg>