<svg width="85" height="86" viewBox="0 0 85 86" fill="none" xmlns="http://www.w3.org/2000/svg"><g filter="url(#filter0_bd_502_2420)"><path fill-rule="evenodd" clip-rule="evenodd" d="M66.696 17.573H52.267c-.996 0-1.803.807-1.803 1.804v9.018c0 .997.807 1.803 1.803 1.803h5.411a1.803 1.803 0 100 3.607h3.607a1.803 1.803 0 100-3.607h5.411c.997 0 1.804-.806 1.804-1.803v-9.018c0-.997-.807-1.804-1.804-1.804zM34.232 51.841H19.804c-.997 0-1.804.807-1.804 1.804v9.018c0 .997.807 1.803 1.804 1.803h5.41a1.803 1.803 0 100 3.607h3.607a1.803 1.803 0 100-3.607h5.411c.997 0 1.804-.806 1.804-1.803v-9.018c0-.997-.807-1.804-1.804-1.804zm23.446-14.428a1.803 1.803 0 113.607 0v5.41c0 .997-.806 1.804-1.803 1.804H49.407l-4.882 4.882a1.8 1.8 0 01-2.55 0l-4.883-4.882h-8.271v3.607a1.803 1.803 0 11-3.607 0v-5.41c0-.998.807-1.804 1.803-1.804h10.075l4.883-4.883a1.803 1.803 0 012.55 0l4.882 4.883h8.271v-3.608z" fill="url(#paint0_linear_502_2420)"/></g><defs><linearGradient id="paint0_linear_502_2420" x1="4.928" y1="55.056" x2="25.736" y2="101.279" gradientUnits="userSpaceOnUse"><stop stop-color="#fff"/><stop offset="1" stop-color="#fff" stop-opacity=".2"/></linearGradient><filter id="filter0_bd_502_2420" x="3" y="2.573" width="80.499" height="80.5" filterUnits="userSpaceOnUse" color-interpolation-filters="sRGB"><feFlood flood-opacity="0" result="BackgroundImageFix"/><feGaussianBlur in="BackgroundImage" stdDeviation="7.5"/><feComposite in2="SourceAlpha" operator="in" result="effect1_backgroundBlur_502_2420"/><feColorMatrix in="SourceAlpha" values="0 0 0 0 0 0 0 0 0 0 0 0 0 0 0 0 0 0 127 0" result="hardAlpha"/><feOffset dx="5" dy="5"/><feGaussianBlur stdDeviation="5"/><feColorMatrix values="0 0 0 0 0.577356 0 0 0 0 0.359375 0 0 0 0 0.9375 0 0 0 0.5 0"/><feBlend in2="effect1_backgroundBlur_502_2420" result="effect2_dropShadow_502_2420"/><feBlend in="SourceGraphic" in2="effect2_dropShadow_502_2420" result="shape"/></filter></defs></svg>