<svg width="85" height="86" viewBox="0 0 85 86" fill="none" xmlns="http://www.w3.org/2000/svg"><g filter="url(#filter0_bd_502_2404)"><path fill-rule="evenodd" clip-rule="evenodd" d="M43.64 19.14l12.063 20.067a1.168 1.168 0 01-.289 1.527l-12.06 9.305a1.168 1.168 0 01-1.428 0l-12.061-9.305a1.168 1.168 0 01-.289-1.527l12.062-20.068a1.167 1.167 0 012.003 0zm10.15 20.255h-.002l.001-.001c.23-.503.01-1.096-.492-1.327L43.06 33.426a1 1 0 00-.834 0l-10.237 4.641a.999.999 0 00-.513 1.33 1.004 1.004 0 001.339.494l9.454-4.28a.899.899 0 01.741 0l9.454 4.285a.998.998 0 001.325-.501zm2.853 7.403a1.167 1.167 0 00-.93-1.857h-.074a1.165 1.165 0 00-.651.242l-12.35 9.362-12.35-9.369a1.168 1.168 0 00-1.668 1.6l13.06 18.69a1.167 1.167 0 001.916 0l13.047-18.668z" fill="url(#paint0_linear_502_2404)"/></g><defs><linearGradient id="paint0_linear_502_2404" x1="21.034" y1="53.749" x2="46.069" y2="87.157" gradientUnits="userSpaceOnUse"><stop stop-color="#fff"/><stop offset="1" stop-color="#fff" stop-opacity=".2"/></linearGradient><filter id="filter0_bd_502_2404" x="13.402" y="3.573" width="58.468" height="77.392" filterUnits="userSpaceOnUse" color-interpolation-filters="sRGB"><feFlood flood-opacity="0" result="BackgroundImageFix"/><feGaussianBlur in="BackgroundImage" stdDeviation="7.5"/><feComposite in2="SourceAlpha" operator="in" result="effect1_backgroundBlur_502_2404"/><feColorMatrix in="SourceAlpha" values="0 0 0 0 0 0 0 0 0 0 0 0 0 0 0 0 0 0 127 0" result="hardAlpha"/><feOffset dx="5" dy="5"/><feGaussianBlur stdDeviation="5"/><feColorMatrix values="0 0 0 0 0.577356 0 0 0 0 0.359375 0 0 0 0 0.9375 0 0 0 0.5 0"/><feBlend in2="effect1_backgroundBlur_502_2404" result="effect2_dropShadow_502_2404"/><feBlend in="SourceGraphic" in2="effect2_dropShadow_502_2404" result="shape"/></filter></defs></svg>