<svg width="85" height="86" viewBox="0 0 85 86" fill="none" xmlns="http://www.w3.org/2000/svg"><g filter="url(#filter0_bd_502_2782)"><path d="M57.02 65.452l-13.282-5.368a3.269 3.269 0 00-2.426 0L28.03 65.452a1.44 1.44 0 01-1.384-.125A1.472 1.472 0 0126 64.085v-42.31a2.196 2.196 0 01.639-1.568 2.15 2.15 0 011.556-.634h28.66a2.15 2.15 0 011.524.652c.402.413.625.97.62 1.55v42.31c0 .485-.236.938-.632 1.212a1.44 1.44 0 01-1.347.155z" fill="#000"/><path d="M57.02 65.452l-13.282-5.368a3.269 3.269 0 00-2.426 0L28.03 65.452a1.44 1.44 0 01-1.384-.125A1.472 1.472 0 0126 64.085v-42.31a2.196 2.196 0 01.639-1.568 2.15 2.15 0 011.556-.634h28.66a2.15 2.15 0 011.524.652c.402.413.625.97.62 1.55v42.31c0 .485-.236.938-.632 1.212a1.44 1.44 0 01-1.347.155z" fill="url(#paint0_linear_502_2782)"/></g><defs><linearGradient id="paint0_linear_502_2782" x1="17.458" y1="53.715" x2="40.255" y2="90.047" gradientUnits="userSpaceOnUse"><stop stop-color="#fff"/><stop offset="1" stop-color="#fff" stop-opacity=".2"/></linearGradient><filter id="filter0_bd_502_2782" x="11" y="4.573" width="63" height="76" filterUnits="userSpaceOnUse" color-interpolation-filters="sRGB"><feFlood flood-opacity="0" result="BackgroundImageFix"/><feGaussianBlur in="BackgroundImage" stdDeviation="7.5"/><feComposite in2="SourceAlpha" operator="in" result="effect1_backgroundBlur_502_2782"/><feColorMatrix in="SourceAlpha" values="0 0 0 0 0 0 0 0 0 0 0 0 0 0 0 0 0 0 127 0" result="hardAlpha"/><feOffset dx="5" dy="5"/><feGaussianBlur stdDeviation="5"/><feColorMatrix values="0 0 0 0 0.577356 0 0 0 0 0.359375 0 0 0 0 0.9375 0 0 0 0.5 0"/><feBlend in2="effect1_backgroundBlur_502_2782" result="effect2_dropShadow_502_2782"/><feBlend in="SourceGraphic" in2="effect2_dropShadow_502_2782" result="shape"/></filter></defs></svg>