<svg width="85" height="86" viewBox="0 0 85 86" fill="none" xmlns="http://www.w3.org/2000/svg"><g filter="url(#filter0_bd_502_2755)" fill-rule="evenodd" clip-rule="evenodd"><path d="M27.96 35.512c-1.158.753-2.485 1.051-3.628 1.157-1.91-.014-3.238-.958-3.77-2.683a11.784 11.784 0 01-.462-4.856c.27-2.386.398-4.778-.724-7.028-.376-.753-.639-1.584.064-2.195.788-.688 1.618-.184 2.272.363 3.436 2.86 6.19 6.255 7.816 10.457.738 1.924.135 3.678-1.569 4.785zm37.399-6.12c2.506 9.038.426 17.217-4.764 24.77-.923 1.343-2.258 2.23-3.904 2.55-2.755.532-4.949-.561-6.83-2.436-1.483-1.483-3.201-1.973-5.253-1.611-1.256.22-2.478.54-3.6 1.115-.795.404-1.164.376-1.561-.518-1.633-3.67-3.344-7.313-5.055-10.948-.313-.66-.284-1.17.063-1.817 3.131-5.857 7.163-10.99 12.297-15.207 2.64-2.165 5.494-3.933 9.094-3.933 4.245.021 8.213 3.336 9.513 8.036zm-9.77 3.898c1.584-.007 2.954-1.349 2.997-2.932.042-1.71-1.25-3.017-2.982-3.017-1.711 0-2.932 1.186-2.953 2.876-.029 1.732 1.263 3.08 2.939 3.073zm.484 7.696c.007 1.307 1.207 2.478 2.541 2.457 1.335-.022 2.506-1.222 2.464-2.528-.043-1.242-1.243-2.407-2.471-2.407-1.334 0-2.541 1.179-2.534 2.478zm-12.808-5.168c.05 1.37 1.08 2.322 2.492 2.307 1.42-.014 2.45-1.115 2.393-2.548-.057-1.35-1.115-2.329-2.492-2.3-1.441.027-2.442 1.092-2.393 2.54zM39.76 61.815c.007-.29-.135-.923-.419-1.526a6663.303 6663.303 0 01-9.534-20.652c-.384-.838-.76-1.377-1.747-.724-.297.196-.683.263-1.06.33-.57.1-1.122.196-1.339.72-.242.59 0 1.255.238 1.914.098.269.195.537.259.799 1.69 6.85 3.393 13.694 5.125 20.538.54 2.138 2.599 3.55 4.643 3.274 2.3-.32 3.834-2.031 3.834-4.673z" fill="#000"/><path d="M27.96 35.512c-1.158.753-2.485 1.051-3.628 1.157-1.91-.014-3.238-.958-3.77-2.683a11.784 11.784 0 01-.462-4.856c.27-2.386.398-4.778-.724-7.028-.376-.753-.639-1.584.064-2.195.788-.688 1.618-.184 2.272.363 3.436 2.86 6.19 6.255 7.816 10.457.738 1.924.135 3.678-1.569 4.785zm37.399-6.12c2.506 9.038.426 17.217-4.764 24.77-.923 1.343-2.258 2.23-3.904 2.55-2.755.532-4.949-.561-6.83-2.436-1.483-1.483-3.201-1.973-5.253-1.611-1.256.22-2.478.54-3.6 1.115-.795.404-1.164.376-1.561-.518-1.633-3.67-3.344-7.313-5.055-10.948-.313-.66-.284-1.17.063-1.817 3.131-5.857 7.163-10.99 12.297-15.207 2.64-2.165 5.494-3.933 9.094-3.933 4.245.021 8.213 3.336 9.513 8.036zm-9.77 3.898c1.584-.007 2.954-1.349 2.997-2.932.042-1.71-1.25-3.017-2.982-3.017-1.711 0-2.932 1.186-2.953 2.876-.029 1.732 1.263 3.08 2.939 3.073zm.484 7.696c.007 1.307 1.207 2.478 2.541 2.457 1.335-.022 2.506-1.222 2.464-2.528-.043-1.242-1.243-2.407-2.471-2.407-1.334 0-2.541 1.179-2.534 2.478zm-12.808-5.168c.05 1.37 1.08 2.322 2.492 2.307 1.42-.014 2.45-1.115 2.393-2.548-.057-1.35-1.115-2.329-2.492-2.3-1.441.027-2.442 1.092-2.393 2.54zM39.76 61.815c.007-.29-.135-.923-.419-1.526a6663.303 6663.303 0 01-9.534-20.652c-.384-.838-.76-1.377-1.747-.724-.297.196-.683.263-1.06.33-.57.1-1.122.196-1.339.72-.242.59 0 1.255.238 1.914.098.269.195.537.259.799 1.69 6.85 3.393 13.694 5.125 20.538.54 2.138 2.599 3.55 4.643 3.274 2.3-.32 3.834-2.031 3.834-4.673z" fill="url(#paint0_linear_502_2755)"/></g><defs><linearGradient id="paint0_linear_502_2755" x1="6.726" y1="54.42" x2="25.942" y2="97.536" gradientUnits="userSpaceOnUse"><stop stop-color="#fff"/><stop offset="1" stop-color="#fff" stop-opacity=".2"/></linearGradient><filter id="filter0_bd_502_2755" x="4" y="4.573" width="77.418" height="76.949" filterUnits="userSpaceOnUse" color-interpolation-filters="sRGB"><feFlood flood-opacity="0" result="BackgroundImageFix"/><feGaussianBlur in="BackgroundImage" stdDeviation="7.5"/><feComposite in2="SourceAlpha" operator="in" result="effect1_backgroundBlur_502_2755"/><feColorMatrix in="SourceAlpha" values="0 0 0 0 0 0 0 0 0 0 0 0 0 0 0 0 0 0 127 0" result="hardAlpha"/><feOffset dx="5" dy="5"/><feGaussianBlur stdDeviation="5"/><feColorMatrix values="0 0 0 0 0.577356 0 0 0 0 0.359375 0 0 0 0 0.9375 0 0 0 0.5 0"/><feBlend in2="effect1_backgroundBlur_502_2755" result="effect2_dropShadow_502_2755"/><feBlend in="SourceGraphic" in2="effect2_dropShadow_502_2755" result="shape"/></filter></defs></svg>