<svg width="72" height="74" viewBox="0 0 72 74" fill="none" xmlns="http://www.w3.org/2000/svg"><g filter="url(#filter0_bd_460_392)"><path d="M31.099 17.658c0-1.249.486-2.446 1.352-3.33a4.575 4.575 0 013.266-1.379c1.225 0 2.4.496 3.266 1.38a4.758 4.758 0 011.353 3.33 4.76 4.76 0 01-1.353 3.33 4.575 4.575 0 01-3.266 1.379c-1.225 0-2.4-.496-3.266-1.38a4.758 4.758 0 01-1.352-3.33zm12.316 14.128v-3.14a4.76 4.76 0 00-1.353-3.33 4.575 4.575 0 00-3.266-1.379h-6.158c-1.225 0-2.4.497-3.266 1.38a4.758 4.758 0 00-1.352 3.33v3.14c0 .416.162.815.45 1.11.29.294.68.459 1.09.459h12.315c.408 0 .8-.165 1.089-.46.288-.294.45-.694.45-1.11zM21.862 45.914c1.225 0 2.4-.496 3.266-1.379a4.757 4.757 0 001.352-3.33c0-1.25-.486-2.447-1.352-3.33a4.574 4.574 0 00-3.266-1.38c-1.225 0-2.4.497-3.266 1.38a4.758 4.758 0 00-1.353 3.33c0 1.25.487 2.447 1.353 3.33a4.575 4.575 0 003.266 1.38zm3.079 1.57h-6.158a4.57 4.57 0 00-3.266 1.38 4.758 4.758 0 00-1.353 3.33v3.139c0 .416.162.816.45 1.11.29.294.681.46 1.09.46H28.02c.408 0 .8-.166 1.088-.46.289-.294.451-.694.451-1.11v-3.14a4.753 4.753 0 00-1.353-3.33 4.575 4.575 0 00-3.265-1.38zm24.632-1.57c1.225 0 2.4-.496 3.266-1.379a4.757 4.757 0 001.352-3.33c0-1.25-.486-2.447-1.352-3.33a4.574 4.574 0 00-3.266-1.38c-1.226 0-2.4.497-3.266 1.38a4.758 4.758 0 00-1.353 3.33c0 1.25.487 2.447 1.353 3.33a4.575 4.575 0 003.266 1.38zm3.079 1.57h-6.158c-1.225 0-2.4.496-3.266 1.38a4.758 4.758 0 00-1.353 3.33v3.139c0 .416.162.816.45 1.11.29.294.681.46 1.09.46H55.73c.408 0 .8-.166 1.088-.46.289-.294.451-.694.451-1.11v-3.14a4.757 4.757 0 00-1.353-3.33 4.575 4.575 0 00-3.265-1.38zm-15.395-5.557v-3.862a1.58 1.58 0 00-.77-1.36 1.514 1.514 0 00-1.54 0c-.476.281-.77.8-.77 1.36v3.862l-3.925 2.684c-.402.33-.615.844-.567 1.368.047.524.35.989.804 1.238a1.512 1.512 0 001.456 0l3.772-2.559 3.772 2.559c.248.177.544.27.847.267.441-.004.86-.2 1.15-.54a1.593 1.593 0 00-.304-2.333l-3.925-2.684z" fill="url(#paint0_linear_460_392)"/></g><defs><linearGradient id="paint0_linear_460_392" x1="3.006" y1="45.572" x2="21.349" y2="85.537" gradientUnits="userSpaceOnUse"><stop stop-color="#fff"/><stop offset="1" stop-color="#fff" stop-opacity=".2"/></linearGradient><filter id="filter0_bd_460_392" x=".963" y="-.252" width="69.508" height="70.355" filterUnits="userSpaceOnUse" color-interpolation-filters="sRGB"><feFlood flood-opacity="0" result="BackgroundImageFix"/><feGaussianBlur in="BackgroundImage" stdDeviation="6.6"/><feComposite in2="SourceAlpha" operator="in" result="effect1_backgroundBlur_460_392"/><feColorMatrix in="SourceAlpha" values="0 0 0 0 0 0 0 0 0 0 0 0 0 0 0 0 0 0 127 0" result="hardAlpha"/><feOffset dx="4.4" dy="4.4"/><feGaussianBlur stdDeviation="4.4"/><feColorMatrix values="0 0 0 0 0.577356 0 0 0 0 0.359375 0 0 0 0 0.9375 0 0 0 0.5 0"/><feBlend in2="effect1_backgroundBlur_460_392" result="effect2_dropShadow_460_392"/><feBlend in="SourceGraphic" in2="effect2_dropShadow_460_392" result="shape"/></filter></defs></svg>