<svg width="85" height="86" viewBox="0 0 85 86" fill="none" xmlns="http://www.w3.org/2000/svg"><g filter="url(#filter0_bd_1113_394)"><path fill-rule="evenodd" clip-rule="evenodd" d="M31.447 20.573h33.75a.804.804 0 01.803.804v33.75a.804.804 0 01-.803.803h-33.75a.804.804 0 01-.804-.803v-33.75c0-.444.36-.804.803-.804zm31.938 7.592l.984-3.938a1.646 1.646 0 00-1.997-1.997l-3.937.984a1.649 1.649 0 00-.765 2.763c.501.497.503 1.307.003 1.806L37.876 47.571a1.291 1.291 0 01-1.826 0 1.646 1.646 0 00-2.762.767l-.984 3.938a1.65 1.65 0 001.592 2.048c.135-.001.27-.018.401-.05l3.938-.985a1.65 1.65 0 001.242-1.733 1.65 1.65 0 00-.477-1.03 1.273 1.273 0 01-.004-1.806l19.797-19.788a1.293 1.293 0 011.827 0 1.626 1.626 0 001.603.42 1.63 1.63 0 001.162-1.187zm-1.625-.372l-2.936-3.02 3.976-.972a.032.032 0 01.01.037l-1.05 3.955zM21.804 44.68a.803.803 0 00-.804.804v19.285a.804.804 0 00.803.804H41.09a.804.804 0 00.804-.804v-7.232H31.446a2.412 2.412 0 01-2.41-2.41V44.68h-7.233zm12.064 8.023a.031.031 0 01-.01-.037l1.051-3.956 2.934 3.02-3.975.973z" fill="url(#paint0_linear_1113_394)"/></g><defs><linearGradient id="paint0_linear_1113_394" x1="9.352" y1="53.973" x2="27.892" y2="95.162" gradientUnits="userSpaceOnUse"><stop stop-color="#fff"/><stop offset="1" stop-color="#fff" stop-opacity=".2"/></linearGradient><filter id="filter0_bd_1113_394" x="6" y="5.573" width="75" height="74.999" filterUnits="userSpaceOnUse" color-interpolation-filters="sRGB"><feFlood flood-opacity="0" result="BackgroundImageFix"/><feGaussianBlur in="BackgroundImage" stdDeviation="7.5"/><feComposite in2="SourceAlpha" operator="in" result="effect1_backgroundBlur_1113_394"/><feColorMatrix in="SourceAlpha" values="0 0 0 0 0 0 0 0 0 0 0 0 0 0 0 0 0 0 127 0" result="hardAlpha"/><feOffset dx="5" dy="5"/><feGaussianBlur stdDeviation="5"/><feColorMatrix values="0 0 0 0 0.577356 0 0 0 0 0.359375 0 0 0 0 0.9375 0 0 0 0.5 0"/><feBlend in2="effect1_backgroundBlur_1113_394" result="effect2_dropShadow_1113_394"/><feBlend in="SourceGraphic" in2="effect2_dropShadow_1113_394" result="shape"/></filter></defs></svg>