<svg width="85" height="86" viewBox="0 0 85 86" fill="none" xmlns="http://www.w3.org/2000/svg"><g filter="url(#filter0_bd_502_2800)"><path d="M37.14 61.248a8.505 8.505 0 005.855 2.325 8.506 8.506 0 005.856-2.325l13.927-13.353c2.87-2.73 4.402-6.54 4.205-10.456-.197-3.916-2.104-7.56-5.234-9.999a15.31 15.31 0 00-9.5-2.856 15.272 15.272 0 00-9.254 3.55c-5.885-4.58-14.773-4.597-19.779.202A13.489 13.489 0 0019 38.107c0 3.682 1.521 7.207 4.216 9.772L37.14 61.248z" fill="#000"/><path d="M37.14 61.248a8.505 8.505 0 005.855 2.325 8.506 8.506 0 005.856-2.325l13.927-13.353c2.87-2.73 4.402-6.54 4.205-10.456-.197-3.916-2.104-7.56-5.234-9.999a15.31 15.31 0 00-9.5-2.856 15.272 15.272 0 00-9.254 3.55c-5.885-4.58-14.773-4.597-19.779.202A13.489 13.489 0 0019 38.107c0 3.682 1.521 7.207 4.216 9.772L37.14 61.248z" fill="url(#paint0_linear_502_2800)"/></g><defs><linearGradient id="paint0_linear_502_2800" x1="6.575" y1="53.52" x2="20.424" y2="91.385" gradientUnits="userSpaceOnUse"><stop stop-color="#fff"/><stop offset="1" stop-color="#fff" stop-opacity=".2"/></linearGradient><filter id="filter0_bd_502_2800" x="4" y="9.573" width="78" height="69" filterUnits="userSpaceOnUse" color-interpolation-filters="sRGB"><feFlood flood-opacity="0" result="BackgroundImageFix"/><feGaussianBlur in="BackgroundImage" stdDeviation="7.5"/><feComposite in2="SourceAlpha" operator="in" result="effect1_backgroundBlur_502_2800"/><feColorMatrix in="SourceAlpha" values="0 0 0 0 0 0 0 0 0 0 0 0 0 0 0 0 0 0 127 0" result="hardAlpha"/><feOffset dx="5" dy="5"/><feGaussianBlur stdDeviation="5"/><feColorMatrix values="0 0 0 0 0.577356 0 0 0 0 0.359375 0 0 0 0 0.9375 0 0 0 0.5 0"/><feBlend in2="effect1_backgroundBlur_502_2800" result="effect2_dropShadow_502_2800"/><feBlend in="SourceGraphic" in2="effect2_dropShadow_502_2800" result="shape"/></filter></defs></svg>