<svg width="158" height="68" viewBox="0 0 158 68" fill="none" xmlns="http://www.w3.org/2000/svg"><path d="M1.887 29.848V14.66h2.721l5.885 7.003 5.865-7.003H19.1v15.188h-2.3v-12.13l-6.307 7.51-6.328-7.51v12.13H1.887zm19.75 0V14.66H35.56v2.278H23.937v4.156h9.345v2.32h-9.345v4.156H35.56v2.278H21.637zm21.943 0v-12.91h-6.455V14.66h15.188v2.278h-6.434v12.91h-2.3zm10.49 0V17.402c0-.506.12-.963.36-1.371a2.79 2.79 0 01.99-.992c.423-.253.887-.38 1.393-.38h9.683c.506 0 .97.127 1.392.38.422.24.752.57.991.992.253.408.38.865.38 1.371v12.446h-2.3v-5.316H56.35v5.316h-2.278zm2.279-7.594h10.61v-4.789c0-.14-.049-.26-.147-.358a.482.482 0 00-.38-.17h-9.556a.525.525 0 00-.38.17.488.488 0 00-.147.358v4.789zm15.515 7.594V14.66h11.813c.492 0 .949.126 1.37.38.423.239.753.569.992.99.254.409.38.866.38 1.372v3.1c0 .184-.021.367-.063.55a1.535 1.535 0 01-.169.506c.281.393.492.766.633 1.118.155.337.232.682.232 1.033v3.396c0 .507-.127.97-.38 1.393a2.79 2.79 0 01-.991.991c-.422.24-.886.359-1.392.359H71.864zm2.805-2.278h9.556c.155 0 .282-.05.38-.148a.561.561 0 00.148-.38v-3.27a.49.49 0 00-.148-.358.482.482 0 00-.38-.169H74.67a.525.525 0 00-.38.169.488.488 0 00-.147.359v3.27c0 .14.05.266.148.379a.563.563 0 00.38.148zm0-6.603h8.945c.14 0 .26-.05.358-.148a.561.561 0 00.148-.38v-2.974a.49.49 0 00-.148-.358.46.46 0 00-.358-.17h-8.945a.525.525 0 00-.38.17.488.488 0 00-.147.358v2.975c0 .14.05.267.148.38a.562.562 0 00.38.147zm14.842 8.88V14.64h2.278v12.93h12.91v2.279H89.511zm19.256 0c-.506 0-.97-.119-1.392-.358a3.032 3.032 0 01-.991-.991 2.776 2.776 0 01-.359-1.393v-9.703c0-.506.12-.963.359-1.371.253-.422.583-.752.991-.992.422-.253.886-.38 1.392-.38h9.704c.492 0 .949.127 1.371.38.422.24.752.57.991.992.254.408.38.865.38 1.371v9.703c0 .507-.126.97-.38 1.393a2.787 2.787 0 01-.991.991c-.422.24-.879.359-1.371.359h-9.704zm.064-2.277h9.555c.155 0 .282-.05.38-.148a.56.56 0 00.148-.38v-9.577c0-.14-.049-.26-.148-.358a.481.481 0 00-.38-.17h-9.555a.524.524 0 00-.38.17.49.49 0 00-.148.358v9.577c0 .14.05.267.148.38a.56.56 0 00.38.148zm13.87 2.278v-.422l6.033-7.172-6.033-7.172v-.422h2.637l4.894 5.8 4.873-5.8h2.637v.422l-6.033 7.172 6.054 7.172v.422h-2.658l-4.894-5.801-4.873 5.8h-2.637zm17.363 0v-2.721l12.129-10.19h-12.129V14.66h15.188v2.72l-12.13 10.19h12.13v2.278h-15.188z" fill="#fff"/><path d="M79.01 68l21.949-37.452H98.25L79.01 63.605 57.082 25.977v4.395L79.01 68z" fill="url(#paint0_linear_1106_327)"/><path d="M53.328 19.533v4.395L49.61 17.77h2.56l1.158 1.762z" fill="url(#paint1_linear_1106_327)"/><path d="M50.307 14.348l-7.08-12.15h71.565l-6.98 11.977h2.561L118.633 0H39.385l8.361 14.348h2.561z" fill="url(#paint2_linear_1106_327)"/><path d="M100.238 27.174l5.041-8.651v4.395l-2.48 4.256h-2.561z" fill="url(#paint3_linear_1106_327)"/><defs><linearGradient id="paint0_linear_1106_327" x1="59.255" y1="103.018" x2="116.145" y2="-6.164" gradientUnits="userSpaceOnUse"><stop stop-color="#FE0000"/><stop offset=".917" stop-color="#6202DB"/></linearGradient><linearGradient id="paint1_linear_1106_327" x1="59.255" y1="103.018" x2="116.145" y2="-6.164" gradientUnits="userSpaceOnUse"><stop stop-color="#FE0000"/><stop offset=".917" stop-color="#6202DB"/></linearGradient><linearGradient id="paint2_linear_1106_327" x1="59.255" y1="103.018" x2="116.145" y2="-6.164" gradientUnits="userSpaceOnUse"><stop stop-color="#FE0000"/><stop offset=".917" stop-color="#6202DB"/></linearGradient><linearGradient id="paint3_linear_1106_327" x1="59.255" y1="103.018" x2="116.145" y2="-6.164" gradientUnits="userSpaceOnUse"><stop stop-color="#FE0000"/><stop offset=".917" stop-color="#6202DB"/></linearGradient></defs></svg>