<svg width="16" height="17" viewBox="0 0 16 17" fill="none" xmlns="http://www.w3.org/2000/svg"><g clip-path="url(#clip0_502_2886)"><path d="M8.207 5.465a3.114 3.114 0 00-3.11 3.11 3.114 3.114 0 003.11 3.111 3.114 3.114 0 003.11-3.11 3.114 3.114 0 00-3.11-3.111zm0 0a3.114 3.114 0 00-3.11 3.11 3.114 3.114 0 003.11 3.111 3.114 3.114 0 003.11-3.11 3.114 3.114 0 00-3.11-3.111zM13.57.962H2.845A2.223 2.223 0 00.623 3.184v10.724c0 1.227.995 2.222 2.222 2.222h10.724a2.223 2.223 0 002.222-2.222V3.184A2.223 2.223 0 0013.57.962zM8.207 12.575c-2.204 0-4-1.795-4-4a4.006 4.006 0 014-3.999c2.204 0 4 1.796 4 4 0 2.204-1.796 4-4 4zm4.888-7.999a.891.891 0 01-.888-.889c0-.488.4-.888.888-.888.49 0 .89.4.89.888 0 .49-.4.89-.89.89zm-4.888.889a3.114 3.114 0 00-3.11 3.11 3.114 3.114 0 003.11 3.111 3.114 3.114 0 003.11-3.11 3.114 3.114 0 00-3.11-3.111zm0 0a3.114 3.114 0 00-3.11 3.11 3.114 3.114 0 003.11 3.111 3.114 3.114 0 003.11-3.11 3.114 3.114 0 00-3.11-3.111zm0 0a3.114 3.114 0 00-3.11 3.11 3.114 3.114 0 003.11 3.111 3.114 3.114 0 003.11-3.11 3.114 3.114 0 00-3.11-3.111z" fill="#fff"/></g><defs><clipPath id="clip0_502_2886"><path fill="#fff" transform="translate(.623 .962)" d="M0 0h15.168v15.168H0z"/></clipPath></defs></svg>