<svg width="16" height="16" viewBox="0 0 16 16" fill="none" xmlns="http://www.w3.org/2000/svg"><g clip-path="url(#clip0_502_2894)"><path d="M13.723.01H2.691A2.068 2.068 0 00.623 2.078V13.11a2.068 2.068 0 002.068 2.068h11.032a2.068 2.068 0 002.068-2.068V2.078A2.068 2.068 0 0013.723.01zm-.794 4.715a4.066 4.066 0 01-.812.892.349.349 0 00-.13.271v.031a5.694 5.694 0 01-.368 1.983 5.803 5.803 0 01-1.08 1.81 5.322 5.322 0 01-1.761 1.32 5.862 5.862 0 01-2.41.505 5.613 5.613 0 01-2.815-.76.161.161 0 01-.076-.18.156.156 0 01.152-.117h.236a3.776 3.776 0 002.114-.64 2.052 2.052 0 01-1.623-1.395.107.107 0 01.121-.137c.114.021.23.032.345.032h.043a2.05 2.05 0 01-1.194-1.885.107.107 0 01.16-.093c.146.082.303.142.465.18a2.047 2.047 0 01-.332-2.482.107.107 0 01.173-.013 5.357 5.357 0 003.686 1.965h.008a.076.076 0 00.07-.052.074.074 0 00.004-.03c-.027-.25-.01-.504.048-.75a1.95 1.95 0 01.259-.602 1.982 1.982 0 011.08-.828c.21-.066.428-.1.648-.1.497 0 .978.181 1.352.51a.266.266 0 00.172.068.259.259 0 00.062-.009 3.816 3.816 0 001-.412.107.107 0 01.156.124c-.104.326-.29.621-.538.857a3.71 3.71 0 00.653-.22.107.107 0 01.132.157z" fill="#fff"/></g><defs><clipPath id="clip0_502_2894"><path fill="#fff" transform="translate(.623 .01)" d="M0 0h15.168v15.168H0z"/></clipPath></defs></svg>